<?xml version="1.0" standalone="no"?>
<!DOCTYPE svg PUBLIC "-//W3C//DTD SVG 1.1//EN" "http://www.w3.org/Graphics/SVG/1.1/DTD/svg11.dtd" >
<svg xmlns="http://www.w3.org/2000/svg" xmlns:xlink="http://www.w3.org/1999/xlink" version="1.1">
<metadata></metadata>
<defs>
<font id="lmsc2regular" horiz-adv-x="1138" >
<font-face units-per-em="2048" ascent="1638" descent="-410" />
<missing-glyph horiz-adv-x="569" />
<glyph horiz-adv-x="0" />
<glyph unicode="&#xd;" horiz-adv-x="681" />
<glyph horiz-adv-x="0" />
<glyph horiz-adv-x="0" />
<glyph unicode=" "  horiz-adv-x="569" />
<glyph unicode="&#x09;" horiz-adv-x="569" />
<glyph unicode="&#xa0;" horiz-adv-x="569" />
<glyph unicode="!" horiz-adv-x="569" d="M147 0v256h275v-256h-275zM158 1040v422h256v-422l-68 -632h-121z" />
<glyph unicode="&#x22;" horiz-adv-x="909" d="M170 885v577h209v-577h-209zM530 885v577h209v-577h-209z" />
<glyph unicode="#" d="M70 430v154h215l37 266h-193v154h213l59 430h166l-61 -430h227l60 430h165l-61 -430h176v-154h-196l-37 -266h174v-154h-195l-61 -430h-164l59 430h-225l-61 -430h-164l59 430h-192zM449 584h227l37 266h-228z" />
<glyph unicode="$" d="M39 444h233q-4 -287 263 -294v495q-80 23 -136.5 42.5t-124.5 55.5q-92 51 -146 134.5t-58 218.5q-2 182 135 293q139 109 330 108v160h88v-160q195 0 321 -102q127 -102 127 -297h-233q-10 215 -215 215v-432q86 -23 147 -44.5t129 -58.5q94 -51 151.5 -135t57.5 -217 q0 -111 -35 -193.5t-99.5 -141t-153.5 -89.5t-197 -37v-160h-88v160q-115 2 -206 36t-155.5 95.5t-99.5 149.5t-35 198zM303 1112q0 -92 62.5 -137t169.5 -72v410q-231 0 -232 -201zM623 150q252 18 251 243q0 104 -66.5 153.5t-184.5 80.5v-477z" />
<glyph unicode="%" horiz-adv-x="2048" d="M168 1055q0 88 21.5 163.5t64.5 129t106.5 84t149.5 30.5t149.5 -30.5t106.5 -84t64.5 -129t21.5 -163.5q0 -92 -20.5 -167t-62.5 -128t-106.5 -83t-152.5 -30t-152.5 30t-106.5 83t-62.5 128t-20.5 167zM352 1055q0 -275 156 -275q82 0 121 76t39 199q0 274 -160 274 q-156 0 -156 -274zM532 -49l797 1532h156l-793 -1532h-160zM1196 379q0 88 21.5 163.5t64.5 129t106.5 84t149.5 30.5t149.5 -30.5t106.5 -84t64.5 -129t21.5 -163.5q0 -92 -20.5 -167t-62.5 -128t-106.5 -83t-152.5 -30t-152.5 30t-106.5 83t-62.5 128t-20.5 167zM1380 379 q0 -275 156 -275q82 0 121 76t39 199q0 274 -160 274q-156 0 -156 -274z" />
<glyph unicode="&#x26;" horiz-adv-x="1327" d="M66 406q0 252 335 423l-73 101q-29 37 -51.5 98.5t-22.5 120.5q0 156 102 252q106 96 256 96t258 -92q106 -92 107 -258q0 -229 -264 -371l227 -274q33 88 45 196h205q-25 -215 -115 -358l281 -340h-287l-133 164q-156 -193 -410 -193q-207 0 -333 115q-127 115 -127 320 zM299 401q0 -117 65.5 -181t170.5 -64q53 0 98 13t72 36q18 16 28 22t25 23l18 24q6 6 19.5 23.5t15.5 21.5l-287 357l-55 -31q-23 -12 -38 -22.5t-25 -18.5q-16 -12 -37 -31.5t-37.5 -46t-26.5 -58.5t-6 -67zM463 1161q0 -33 15.5 -69.5t29.5 -59.5l45 -61q16 -23 27.5 -34 t15.5 -19q59 39 86 63q31 27 58.5 73t27.5 101q0 74 -41 121t-109 47q-66 0 -110.5 -45t-44.5 -117z" />
<glyph unicode="'" horiz-adv-x="569" d="M180 885v577h209v-577h-209z" />
<glyph unicode="(" horiz-adv-x="569" d="M100 553q0 489 295 944h191q-252 -453 -252 -944q0 -518 252 -944h-191q-70 111 -125 221.5t-93 225t-57.5 238.5t-19.5 259z" />
<glyph unicode=")" horiz-adv-x="569" d="M-16 -391q252 444 252 942q0 518 -252 946h190q70 -111 125 -222.5t93 -227t57.5 -238.5t19.5 -258q0 -492 -295 -942h-190z" />
<glyph unicode="*" horiz-adv-x="757" d="M39 1171l45 134l225 -88v245h140v-245l223 88l49 -134l-234 -77l144 -193l-109 -80l-145 201l-139 -201l-115 80l143 193z" />
<glyph unicode="+" horiz-adv-x="1228" d="M98 414v209h412v413h209v-413h411v-209h-411v-414h-209v414h-412z" />
<glyph unicode="," horiz-adv-x="569" d="M141 0v276h285v-276q0 -125 -77 -212t-199 -112v125q66 16 100.5 72.5t32.5 126.5h-142z" />
<glyph unicode="-" horiz-adv-x="796" d="M100 446v222h596v-222h-596z" />
<glyph unicode="." horiz-adv-x="569" d="M141 0v276h285v-276h-285z" />
<glyph unicode="/" horiz-adv-x="720" d="M-45 -35l588 1532h223l-588 -1532h-223z" />
<glyph unicode="0" d="M74 717q0 137 20 256q10 59 27.5 118.5t44.5 115t64.5 103.5t88.5 83q104 70 250 69q145 0 250 -69q51 -35 89 -83t64.5 -103.5t44 -115t27.5 -118.5q20 -119 20.5 -256t-20.5 -256q-10 -59 -27.5 -119.5t-44 -116t-64.5 -103.5t-89 -83q-102 -68 -250 -68 q-150 0 -250 68q-51 35 -88.5 83t-64.5 103.5t-44.5 115.5t-27.5 120q-20 119 -20 256zM307 717q0 -551 262 -551t262 551t-262 551t-262 -551z" />
<glyph unicode="1" d="M109 1012v184q80 0 150.5 14.5t125.5 43t92 73.5t49 107h191v-1434h-256v1012h-352z" />
<glyph unicode="2" d="M80 0q2 334 315 543q16 12 44 31.5t69 46.5q78 51 121 84q23 16 46 36.5t50 46.5q53 51 76.5 106.5t25.5 119.5q2 98 -53 176q-53 78 -188 78q-238 0 -246 -359h-234q0 246 130 400q131 154 364 153q131 0 219 -43t142.5 -107.5t77 -142t22.5 -147.5q0 -78 -21.5 -143.5 t-63.5 -124t-101.5 -111.5t-133.5 -104q-14 -10 -43.5 -31t-74.5 -49q-45 -29 -77 -49.5t-48 -34.5q-18 -12 -39 -31.5t-40.5 -42t-35.5 -46.5t-23 -46h699v-209h-979z" />
<glyph unicode="3" d="M63 471h234q-4 -135 65.5 -220t204.5 -85q123 0 199 68.5t76 187.5q0 84 -33 133t-86 74.5t-119.5 32t-136.5 4.5v174q131 -6 225 47q92 55 92 178q0 92 -62.5 147.5t-160.5 55.5q-115 0 -178 -88q-63 -84 -59 -205h-234q8 213 137 350q125 137 338 137q180 0 318 -102 q135 -102 135 -281q0 -238 -203 -307v-4q123 -25 191.5 -121t68.5 -237q0 -199 -147 -318q-150 -121 -361 -121q-242 0 -370.5 133.5t-133.5 366.5z" />
<glyph unicode="4" d="M49 340v231l615 863h221v-910h184v-184h-184v-340h-221v340h-615zM229 524h435v631h-5z" />
<glyph unicode="5" d="M72 408h233q10 -117 79 -179.5t185 -62.5q141 0 204 86t63 229q0 63 -17.5 118.5t-52.5 95.5t-85 62.5t-118 22.5q-182 0 -231 -131h-234l154 785h741v-209h-567l-74 -365l4 -4q98 109 265 109q207 0 327 -136q121 -133 121 -344q0 -86 -27.5 -177t-88 -165.5 t-154.5 -123t-226 -48.5q-217 0 -354 113t-147 324z" />
<glyph unicode="6" d="M70 721q0 137 28.5 262t87.5 236t168 177t256 66q172 0 299 -110q123 -106 133 -281h-233q-8 88 -62.5 140.5t-146.5 56.5q-47 2 -84 -12.5t-66.5 -39t-51 -57.5t-36.5 -65q-10 -23 -18 -49.5t-14 -59.5q-6 -31 -10.5 -56.5t-7.5 -49t-5 -48t-4 -55.5l4 -4q47 82 129 126 t180 44q209 0 330 -135q123 -135 123 -346t-133 -350t-344 -140q-123 0 -216 39t-151 105q-90 106 -123.5 259.5t-31.5 346.5zM326 465q0 -61 17 -116.5t51 -95.5t81.5 -63.5t108.5 -23.5q59 0 106 23.5t79 64.5t49.5 95t17.5 116q0 61 -16.5 114.5t-49.5 93.5t-79 62.5 t-107 22.5t-109.5 -22.5t-81.5 -61.5t-50 -93.5t-17 -115.5z" />
<glyph unicode="7" d="M72 1225v209h981v-195q-238 -268 -373 -567t-162 -672h-256q23 328 172 643q152 322 381 582h-743z" />
<glyph unicode="8" d="M63 422q0 135 70 227t193 123v4q-203 76 -203 295q0 186 115.5 288.5t330.5 102.5t331 -102.5t116 -288.5q0 -219 -203 -295v-4q123 -31 192.5 -123t69.5 -227q0 -207 -141 -330q-143 -121 -365 -121q-221 0 -364 121q-142 123 -142 330zM297 422q0 -123 77 -194.5 t195 -71.5q119 0 196 71.5t77 194.5q0 117 -77 184.5t-196 67.5t-195.5 -67.5t-76.5 -184.5zM344 1059q0 -98 62.5 -154.5t162.5 -56.5t163 56.5t63 154.5q0 104 -63.5 161.5t-162.5 57.5q-98 0 -161.5 -57.5t-63.5 -161.5z" />
<glyph unicode="9" d="M70 973q0 215 131 352t362 137q119 0 208 -39t144 -104q88 -106 121 -260t33 -346q0 -137 -28.5 -262t-88.5 -236q-59 -111 -167.5 -177.5t-256.5 -66.5q-172 0 -299 109q-123 109 -133 282h234q8 -88 62 -140t147 -56q47 -2 83.5 12.5t66.5 39t50.5 56t36.5 66.5 q10 23 18.5 48.5t14.5 57.5q12 66 17 108t10 103l-5 5q-45 -82 -126.5 -127.5t-182.5 -45.5q-203 0 -327 132q-125 131 -125 352zM303 975q0 -63 16.5 -118.5t48 -95.5t78 -63.5t107.5 -23.5t110.5 23.5t82 63.5t50 95t17.5 119q0 61 -17.5 114.5t-50 93.5t-82 62.5 t-110.5 22.5t-107.5 -22.5t-78 -61.5t-48 -93.5t-16.5 -115.5z" />
<glyph unicode=":" horiz-adv-x="569" d="M141 0v276h285v-276h-285zM141 760v276h285v-276h-285z" />
<glyph unicode=";" horiz-adv-x="569" d="M141 0v276h285v-276q0 -125 -77 -212t-199 -112v125q66 16 100.5 72.5t32.5 126.5h-142zM141 760v276h285v-276h-285z" />
<glyph unicode="&#x3c;" horiz-adv-x="1228" d="M94 444v148l1041 461v-209l-766 -326l766 -325v-209z" />
<glyph unicode="=" horiz-adv-x="1228" d="M98 207v209h1032v-209h-1032zM98 621v208h1032v-208h-1032z" />
<glyph unicode="&#x3e;" horiz-adv-x="1228" d="M94 -16v209l766 325l-766 326v209l1041 -461v-148z" />
<glyph unicode="?" d="M104 997q-2 225 132 363q135 137 360 137q193 0 319 -111q127 -111 127 -303q0 -70 -13 -122t-46 -95q-16 -20 -27.5 -34.5t-24.5 -27.5t-28.5 -27.5t-40.5 -33.5q-35 -29 -58.5 -50t-39.5 -38q-29 -31 -55.5 -98.5t-26.5 -159.5h-221q0 168 35 254q37 86 125 162 q8 8 31.5 27.5t31.5 25.5l26.5 26.5t26.5 29.5q23 29 36 65.5t13 87.5q0 111 -65 170q-63 57 -135 58q-123 0 -185.5 -81t-62.5 -225h-234zM430 0v256h275v-256h-275z" />
<glyph unicode="@" horiz-adv-x="1638" d="M100 758q0 307 222 522q223 217 530 217q281 0 483 -172q203 -170 203 -428q0 -145 -51 -267t-129 -194t-158 -110.5t-145 -38.5q-51 0 -85 30.5t-36 88.5h-4q-104 -117 -230 -117q-127 0 -213 94t-86 227q0 203 127 367q129 164 322 164q158 0 229 -148l37 117h144 l-148 -539q-39 -141 21 -141q100 0 182 131q84 133 84 311q0 223 -158 357q-158 135 -389 135q-258 0 -424 -178q-164 -176 -164 -436q0 -293 170 -474q172 -178 436 -178q135 0 255 52.5t206 150.5h144q-98 -160 -260 -248t-353 -88q-322 0 -543 223q-219 225 -219 570z M575 629q0 -82 45 -134.5t119 -52.5q113 0 197 121t84 244q0 37 -13.5 69.5t-35 57t-51 39t-62.5 14.5q-119 0 -201 -117q-82 -113 -82 -241z" />
<glyph unicode="A" horiz-adv-x="1366" d="M-14 0l561 1462h272l563 -1462h-274l-137 387h-584l-137 -387h-264zM457 582h446l-219 628h-6z" />
<glyph unicode="B" horiz-adv-x="1441" d="M156 0v1462h710q205 0 319.5 -91t114.5 -271q0 -223 -208 -312v-4q135 -29 204.5 -128t69.5 -248q0 -92 -34 -167t-100.5 -128.5t-167.5 -83t-237 -29.5h-671zM412 209h452q117 0 181.5 60.5t64.5 170.5q0 106 -64.5 166t-181.5 60h-452v-457zM412 850h417q94 0 154.5 52 t60.5 151q0 106 -52 153t-163 47h-417v-403z" />
<glyph unicode="C" horiz-adv-x="1478" d="M78 731q0 324 190 545q191 221 504 221h6q250 0 426 -135q172 -133 195 -365h-256q-74 291 -365 291q-217 0 -332 -164q-112 -161 -112 -389q0 -237 112 -399q113 -162 332 -162q82 0 147.5 28.5t112.5 79t76 121t37 154.5h250q-16 -264 -189 -428q-170 -164 -434 -164 q-319 0 -510 221q-190 221 -190 545z" />
<glyph unicode="D" horiz-adv-x="1478" d="M156 0v1462h606q322 0 483 -205q162 -201 162 -526q0 -324 -162 -528q-164 -203 -483 -203h-606zM412 209h252q291 0 395 151q51 76 71.5 164t20.5 207t-20.5 207t-71.5 162q-103 153 -391 153h-4h-252v-1044z" />
<glyph unicode="E" horiz-adv-x="1290" d="M156 0v1462h1052v-221h-796v-383h737v-209h-737v-428h811v-221h-1067z" />
<glyph unicode="F" horiz-adv-x="1214" d="M156 0v1462h1009v-221h-753v-383h661v-209h-661v-649h-256z" />
<glyph unicode="G" horiz-adv-x="1554" d="M88 731q0 324 191 545q190 221 509 221q250 0 424 -131q174 -129 203 -369h-250q-10 70 -41.5 124.5t-82 91t-115 56t-138.5 19.5q-217 0 -331 -164q-113 -162 -113 -393q0 -233 113 -395t331 -162h7q188 0 293 104q106 107 110 297h-389v195h623v-770h-164l-39 172 q-100 -115 -201.5 -161t-239.5 -46q-319 0 -509 221t-191 545z" />
<glyph unicode="H" horiz-adv-x="1478" d="M150 0v1462h256v-581h665v581h256v-1462h-256v659h-665v-659h-256z" />
<glyph unicode="I" horiz-adv-x="569" d="M156 0v1462h256v-1462h-256z" />
<glyph unicode="J" horiz-adv-x="1099" d="M27 434v78h256v-76q0 -131 45 -196.5t155 -65.5q119 0 162 67.5t43 215.5v1005h256v-991q0 -86 -9 -151.5t-40 -135.5q-23 -49 -56.5 -89t-86 -68.5t-124 -45t-165.5 -16.5q-111 0 -193 33t-136 94.5t-80.5 148.5t-26.5 193z" />
<glyph unicode="K" horiz-adv-x="1402" d="M156 0v1462h256v-665l651 665h315l-583 -583l624 -879h-319l-479 698l-209 -206v-492h-256z" />
<glyph unicode="L" horiz-adv-x="1175" d="M156 0v1462h256v-1241h743v-221h-999z" />
<glyph unicode="M" horiz-adv-x="1820" d="M152 0v1462h360l403 -1145h5l393 1145h356v-1462h-244v1128h-4l-405 -1128h-211l-406 1128h-4v-1128h-243z" />
<glyph unicode="N" horiz-adv-x="1478" d="M145 0v1462h271l667 -1077h4v1077h244v-1462h-270l-666 1075h-6v-1075h-244z" />
<glyph unicode="O" horiz-adv-x="1556" d="M78 731q0 324 190 545t510 221q319 0 510 -221q190 -221 191 -545q0 -324 -191 -545q-190 -221 -510 -221q-319 0 -510 221q-190 221 -190 545zM446 336q113 -162 332 -162t332 162t113 395q0 231 -113 393q-115 164 -332 164t-332 -164q-112 -161 -112 -389 q0 -237 112 -399z" />
<glyph unicode="P" horiz-adv-x="1366" d="M156 0v1462h645q147 0 251.5 -43t153.5 -116q51 -74 71.5 -145t20.5 -148q0 -78 -20.5 -148.5t-71.5 -142.5q-49 -72 -153.5 -115t-251.5 -43h-389v-561h-256zM412 770h374q102 0 179 57q77 58 77 182q0 244 -249 244h-2h-379v-483z" />
<glyph unicode="Q" horiz-adv-x="1556" d="M78 731q0 324 190 545t510 221q319 0 510 -221q190 -221 191 -545q0 -162 -51.5 -312.5t-155.5 -248.5l188 -164l-125 -139l-213 186q-156 -88 -344 -88q-319 0 -510 221q-190 221 -190 545zM446 336q113 -162 332 -162q90 0 164 35l-147 129l123 141l178 -155 q127 152 127 407q0 231 -113 393q-115 164 -332 164t-332 -164q-112 -161 -112 -389q0 -237 112 -399z" />
<glyph unicode="R" horiz-adv-x="1441" d="M156 0v1462h698q240 0 361.5 -102.5t121.5 -292.5q0 -287 -241 -369v-4q43 -6 82 -26.5t69.5 -57.5t48 -92t17.5 -133q0 -299 80 -385h-275q-39 63 -39 215q0 209 -61 299q-57 88 -230 88h-376v-602h-256zM412 797h419q250 0 250 233q0 129 -68.5 176t-185.5 47h-415 v-456z" />
<glyph unicode="S" horiz-adv-x="1327" d="M68 487h256q0 -160 102 -236.5t268 -76.5q160 0 235 64.5t75 156.5q0 133 -121 180q-23 8 -49.5 15.5t-57.5 17.5q-29 8 -68.5 19.5t-91.5 23.5q-49 12 -92 23.5t-78 21.5q-323 90 -323 369q0 108 46 189t122 135.5t172 82.5q89 26 181 25h13q242 -4 400 -125 q162 -125 162 -342h-256q-16 258 -316 258q-106 0 -188 -45q-80 -47 -80 -145q0 -143 174 -189l96 -24l193 -51l133 -37q70 -18 123 -56.5t89 -88.5t54.5 -108.5t18.5 -119.5q0 -158 -89 -264q-86 -106 -213 -150.5t-280 -44.5q-268 0 -436 131q-172 133 -174 391z" />
<glyph unicode="T" horiz-adv-x="1214" d="M16 1241v221h1184v-221h-465v-1241h-256v1241h-463z" />
<glyph unicode="U" horiz-adv-x="1478" d="M139 526v936h256v-852q0 -37 1 -65.5t3 -55t7.5 -53t15.5 -59.5q25 -90 96.5 -138.5t220.5 -52.5h23q83 0 141 25q66 29 101 65q35 39 53 101q8 33 14 59.5t8 53t3 55t1 65.5v852h256v-936q0 -137 -42 -242.5t-119.5 -176t-188 -106.5t-250.5 -36q-139 0 -249.5 36 t-188.5 106.5t-120 176t-42 242.5z" />
<glyph unicode="V" horiz-adv-x="1251" d="M-10 1462h266l367 -1157h4l374 1157h261l-500 -1462h-285z" />
<glyph unicode="W" horiz-adv-x="1933" d="M12 1462h260l265 -1118h4l295 1118h262l286 -1118h5l272 1118h260l-403 -1462h-261l-292 1118h-4l-299 -1118h-265z" />
<glyph unicode="X" horiz-adv-x="1327" d="M-6 0l518 758l-483 704h305l332 -516l346 516h286l-483 -704l518 -758h-311l-365 559l-370 -559h-293z" />
<glyph unicode="Y" horiz-adv-x="1327" d="M-12 1462h297l387 -655l381 655h286l-546 -889v-573h-256v573z" />
<glyph unicode="Z" horiz-adv-x="1290" d="M47 0v209l852 1032h-786v221h1112v-194l-852 -1047h872v-221h-1198z" />
<glyph unicode="[" horiz-adv-x="606" d="M147 -391v1888h457v-184h-235v-1520h235v-184h-457z" />
<glyph unicode="\" horiz-adv-x="720" d="M-45 1497h223l588 -1532h-223z" />
<glyph unicode="]" horiz-adv-x="606" d="M2 -207h236v1520h-236v184h457v-1888h-457v184z" />
<glyph unicode="^" horiz-adv-x="1228" d="M172 686l369 748h147l369 -748h-209l-234 506l-233 -506h-209z" />
<glyph unicode="_" horiz-adv-x="1024" d="M0 -154h1024v-102h-1024v102z" />
<glyph unicode="`" horiz-adv-x="493" d="M-59 1497h274l186 -293h-170z" />
<glyph unicode="a" d="M66 281q0 188 133 256q66 33 125 47t149 26q39 4 94 13l92 14q51 7 95 35q38 24 38 74q0 7 -1 14q0 143 -220 143q-104 0 -164.5 -41t-68.5 -127h-234q12 186 146 271q131 81 331 81h5q174 0 299 -75q125 -76 125 -232v-544q0 -43 12 -61.5t43 -18.5q16 0 30.5 1t26.5 3 v-162q-74 -27 -147 -27q-156 0 -180 129q-66 -63 -166.5 -96t-200.5 -33q-154 0 -258 80q-104 82 -104 230zM299 291q0 -70 68 -103q66 -32 142 -32h5q94 0 178 49q84 53 84 151v174q-33 -20 -78 -32q-45 -10 -112 -19l-97 -12q-88 -10 -139 -50t-51 -126z" />
<glyph unicode="b" horiz-adv-x="1251" d="M129 0v1462h233v-540h5q47 76 135 120.5t180 44.5q238 0 367 -159q129 -160 129 -404q0 -231 -119 -393q-117 -160 -338 -160q-279 0 -367 174h-4v-145h-221zM354 528q0 -82 20.5 -150.5t59.5 -117.5t94.5 -76.5t122.5 -27.5q147 0 219 108q74 106 74 264q0 152 -78 265 q-77 110 -213 110h-2q-143 0 -220 -100.5t-77 -274.5z" />
<glyph unicode="c" d="M72 518q0 252 135 410q134 159 384 159h3q195 0 328 -98q135 -100 149 -284h-233q-14 94 -79 146t-163 52q-45 0 -96 -15.5t-94.5 -57.5t-72 -117.5t-28.5 -194.5q0 -150 70 -256t211 -106q104 0 169.5 64.5t82.5 176.5h233q-33 -209 -156.5 -317.5t-328.5 -108.5 q-244 0 -379 152q-135 150 -135 395z" />
<glyph unicode="d" horiz-adv-x="1251" d="M72 537q0 270 133 409q135 141 325 141q111 0 206 -41.5t147 -123.5h4v540h233v-1462h-221v143h-4q-43 -86 -132 -129t-196 -43q-242 0 -368 158q-127 158 -127 408zM305 518q0 -150 74 -256q76 -106 219 -106t221 110q76 109 76 264q0 174 -79 273.5t-214 99.5 q-152 0 -225 -112q-72 -113 -72 -273z" />
<glyph unicode="e" d="M72 528q0 231 141 396q140 163 368 163h3q244 0 387 -186q118 -153 118 -346q0 -42 -6 -86h-778q0 -68 18.5 -125t54.5 -99t89 -65.5t123 -23.5q197 0 258 176h221q-18 -86 -62 -152.5t-106.5 -113t-142.5 -71t-168 -24.5q-244 0 -381 154q-137 152 -137 403zM305 623 h545q-4 57 -23.5 108t-54.5 90t-83 60.5t-105 21.5q-121 0 -197 -80q-80 -82 -82 -200z" />
<glyph unicode="f" horiz-adv-x="645" d="M18 885v174h175v88q0 184 77 250q81 65 211 65h4q115 0 164 -14v-182q-47 12 -108 12q-115 0 -115 -111v-108h199v-174h-199v-885h-233v885h-175z" />
<glyph unicode="g" horiz-adv-x="1214" d="M72 557q0 223 129 377q130 153 347 153h3q104 0 187 -44t126 -130h4v146h234v-1004q0 -236 -132 -355.5t-388 -119.5q-113 0 -215 29q-49 14 -93.5 40.5t-79 65.5t-57 87t-28.5 108h233q20 -92 85 -124t169 -32q272 0 272 271v161h-4q-49 -88 -134 -137t-183 -49 q-127 0 -216 44t-147.5 121t-85 177t-26.5 215zM305 535q0 -145 70 -248q72 -103 209 -103q141 0 213 109q71 108 71 256q0 78 -17 142.5t-53 111.5t-89.5 73.5t-124.5 26.5q-143 0 -211 -108q-68 -109 -68 -260z" />
<glyph unicode="h" horiz-adv-x="1175" d="M123 0v1462h233v-542h4q45 74 129 120.5t189 46.5q178 0 276.5 -91t98.5 -269v-727h-234v666q0 123 -51 180t-156 57q-57 0 -104 -21.5t-81 -58.5t-52.5 -88t-18.5 -110v-625h-233z" />
<glyph unicode="i" horiz-adv-x="493" d="M129 0v1059h233v-1059h-233zM129 1241v221h233v-221h-233z" />
<glyph unicode="j" horiz-adv-x="493" d="M-45 -227q31 -4 50.5 -6.5t29.5 -2.5q59 0 76.5 35t17.5 121v1139h233v-1149q0 -166 -71.5 -248t-231.5 -82q-23 0 -48 2t-56 6v185zM129 1241v221h233v-221h-233z" />
<glyph unicode="k" horiz-adv-x="1099" d="M129 0v1462h233v-831l422 428h287l-405 -389l444 -670h-285l-323 514l-140 -135v-379h-233z" />
<glyph unicode="l" horiz-adv-x="493" d="M129 0v1462h233v-1462h-233z" />
<glyph unicode="m" horiz-adv-x="1781" d="M123 0v1059h221v-148h6q117 176 326 176q104 0 183 -45t114 -131q127 176 332 176q174 0 264 -82.5t90 -273.5v-731h-234v618q0 59 -3 95.5t-13 77.5q-16 55 -55 83.5t-121 28.5q-225 0 -225 -282v-621h-234v680q0 117 -41 170t-145 53q-98 0 -165 -72.5t-67 -201.5v-629 h-233z" />
<glyph unicode="n" horiz-adv-x="1175" d="M123 0v1059h221v-156l4 -4q53 88 139 138t191 50q178 0 276.5 -91t98.5 -269v-727h-234v666q0 123 -51 180t-156 57q-57 0 -104 -21.5t-81 -58.5t-52.5 -88t-18.5 -110v-625h-233z" />
<glyph unicode="o" horiz-adv-x="1214" d="M74 530q0 248 141 402q142 155 390 155h3q248 0 391 -155q143 -156 144 -402q0 -250 -144 -405q-141 -154 -391 -154q-252 0 -393 154q-141 153 -141 405zM307 530q0 -156 76 -264q75 -110 222 -110h3q145 0 223 110q78 112 78 264q0 150 -78 263q-77 110 -220 110h-3 q-150 0 -225 -110q-76 -109 -76 -263z" />
<glyph unicode="p" horiz-adv-x="1251" d="M129 -391v1450h221v-144h4q94 172 328 172q238 0 367 -159q129 -160 129 -404q0 -231 -119 -393q-117 -160 -338 -160q-111 0 -206 40t-148 126h-5v-528h-233zM354 528q0 -82 20.5 -150.5t59.5 -117.5t94.5 -76.5t122.5 -27.5q147 0 219 108q74 106 74 264q0 152 -78 265 q-77 110 -213 110h-2q-143 0 -220 -100.5t-77 -274.5z" />
<glyph unicode="q" horiz-adv-x="1251" d="M72 524q0 246 127 404q128 159 365 159h3q231 0 328 -172h4v144h221v-1450h-233v528h-4q-53 -86 -148.5 -126t-206.5 -40q-223 0 -340 160q-59 82 -87.5 179.5t-28.5 213.5zM305 528q0 -156 72 -264q73 -108 218 -108h3q147 0 222 99t75 273t-77 274.5t-220 100.5 q-139 0 -215 -110q-78 -113 -78 -265z" />
<glyph unicode="r" horiz-adv-x="720" d="M123 0v1059h219v-205h4q23 90 113 160q91 73 193 73h3q27 0 88 -6v-225q-41 4 -65.5 7t-34.5 3q-125 0 -206 -95t-81 -267v-504h-233z" />
<glyph unicode="s" horiz-adv-x="1062" d="M66 340h233q14 -184 240 -184q33 0 74.5 5t78.5 19q36 14 60 42q22 25 22 66v7q-4 41 -25.5 65.5t-58.5 42.5q-20 10 -57 20.5t-62 16.5t-71.5 15.5t-71.5 15.5q-74 16 -127 34.5t-106 53.5q-106 70 -107 225q0 86 42 144.5t106.5 94.5t142.5 50t151 14q88 0 165 -19 t135.5 -60t95.5 -102.5t47 -143.5h-244q-27 137 -215 141q-29 0 -61.5 -4t-61.5 -16.5t-48 -34t-21 -53.5v-6q0 -35 22 -57q24 -24 57 -40q20 -10 57.5 -20t61.5 -17q12 -4 32.5 -7t41 -8t40 -9t32.5 -6q76 -16 128 -36t105 -54q109 -72 109 -220q0 -119 -76 -200 q-74 -80 -176.5 -112t-220.5 -32q-104 0 -190.5 23.5t-148 71t-96 116t-34.5 158.5z" />
<glyph unicode="t" horiz-adv-x="681" d="M16 885v174h177v317h233v-317h211v-174h-211v-566q0 -82 19.5 -113.5t93.5 -31.5q68 0 98 8v-180q-14 -2 -33.5 -4t-41 -4t-42 -3t-35.5 -1q-174 0 -231 63q-61 68 -61 207v625h-177z" />
<glyph unicode="u" horiz-adv-x="1175" d="M123 387v672h233v-649q0 -254 203 -254q260 0 260 288v615h234v-1059h-230v147h-4q-23 -39 -55.5 -71.5t-72.5 -55t-85 -36t-88 -13.5q-205 0 -300 102.5t-95 313.5z" />
<glyph unicode="v" horiz-adv-x="1062" d="M18 1059h254l269 -813h4l258 813h241l-378 -1059h-263z" />
<glyph unicode="w" horiz-adv-x="1593" d="M27 1059h247l207 -791h4l199 791h236l190 -791h4l215 791h238l-332 -1059h-240l-196 786h-4l-195 -786h-246z" />
<glyph unicode="x" horiz-adv-x="1099" d="M8 0l400 557l-367 502h283l221 -326l231 326h271l-361 -490l406 -569h-281l-268 391l-260 -391h-275z" />
<glyph unicode="y" horiz-adv-x="1062" d="M6 1059h256l277 -791h4l268 791h244l-412 -1116q-35 -94 -64.5 -152.5t-50.5 -87.5q-90 -123 -260 -123q-82 0 -162 12v197q43 -8 71 -11t40 -3q74 0 105.5 34.5t58.5 112.5l27 82z" />
<glyph unicode="z" horiz-adv-x="1024" d="M45 0v164l586 710h-545v185h860v-164l-606 -711h637v-184h-932z" />
<glyph unicode="{" horiz-adv-x="606" d="M-8 461v184q61 0 127 35q66 37 65 115v422q0 129 88 204q88 76 174 76h187v-184h-113q-115 0 -114 -144v-399q0 -76 -44 -127q-43 -51 -83.5 -66.5t-85.5 -21.5v-4q213 -23 213 -227v-387q0 -143 114 -144h113v-184h-187q-86 0 -174 76t-88 204v406q0 86 -65 127 q-63 39 -127 39z" />
<glyph unicode="|" horiz-adv-x="454" d="M123 -438v2048h209v-2048h-209z" />
<glyph unicode="}" horiz-adv-x="606" d="M-27 -207h113q115 0 115 144v399q0 74 43 127q43 51 84 66.5t86 21.5v4q-213 23 -213 227v387q0 143 -115 144h-113v184h187q84 0 172 -76q90 -78 90 -204v-406q0 -88 63 -127t129 -39v-184q-66 0 -129 -37q-63 -33 -63 -113v-422q0 -127 -90 -204q-88 -76 -172 -76h-187 v184z" />
<glyph unicode="~" horiz-adv-x="1228" d="M141 516q92 176 256 176q84 0 228 -65l90 -41q31 -10 63.5 -21.5t55.5 -11.5q39 0 75 25q37 27 52 45l53 69l73 -172q-41 -55 -67 -86q-27 -31 -78 -60.5t-111 -29.5q-86 0 -208 68q-127 72 -236 71q-100 0 -172 -139z" />
<glyph unicode="&#xa1;" horiz-adv-x="569" d="M147 831v256h275v-256h-275zM158 43l67 637h121l68 -637v-418h-256v418z" />
<glyph unicode="&#xa2;" d="M76 518q0 256 131 412q133 158 342 157v185h88v-185q174 0 297 -104q123 -102 139 -278h-233q-10 88 -66.5 143t-136.5 55v-747q184 31 211 241h233q-37 -203 -147.5 -314.5t-296.5 -111.5v-184h-88v184q-215 0 -344 158q-129 156 -129 389zM309 518q0 -68 14.5 -130 t44 -110.5t74.5 -81t107 -40.5v747q-125 -12 -182 -125t-58 -260z" />
<glyph unicode="&#xa3;" d="M63 653v133h130q-96 121 -97 289q0 182 146 303q143 119 333 119q242 0 377 -129t138 -377h-234q-16 311 -276 312q-98 0 -163 -64.5t-65 -175.5q0 -102 94 -277h302v-133h-252q33 -59 32 -137q0 -182 -206 -336l4 -4q137 55 188 55q70 0 166 -34q45 -16 83 -26.5 t68 -10.5q109 0 199 78l105 -158q-133 -115 -328 -115q-18 0 -45 4t-54.5 8.5t-55 9.5t-48.5 9q-139 41 -215 41q-125 0 -207 -70l-108 166q88 59 153 150q68 94 68 182q0 98 -43 188h-189z" />
<glyph unicode="&#xa4;" d="M41 299l117 125q-102 115 -103 291q0 193 103 295l-117 125l117 116l116 -114q109 94 299 94q178 0 281 -92l119 116l125 -125l-115 -118q96 -102 96 -293q0 -182 -98 -299l113 -121l-113 -113l-117 119q-109 -102 -293 -102q-193 0 -301 100l-114 -119zM276 715 q0 -125 84 -215q86 -88 211 -88q121 0 205 90q82 88 82 217q0 125 -82 213q-84 90 -203 90q-127 0 -213 -90q-84 -90 -84 -217z" />
<glyph unicode="&#xa5;" d="M-10 1462h260l319 -655l326 655h254l-385 -719h203v-133h-281v-139h281v-133h-281v-338h-233v338h-281v133h281v139h-281v133h201z" />
<glyph unicode="&#xa6;" horiz-adv-x="454" d="M123 -182v512h209v-512h-209zM123 842v512h209v-512h-209z" />
<glyph unicode="&#xa7;" d="M45 639q0 209 221 305q-88 88 -88 207q0 154 123 250q125 96 281 96q178 0 292 -104q115 -104 119 -283h-221q-4 88 -55 145.5t-137 57.5q-66 0 -117 -44t-51 -110q0 -82 86 -145q25 -16 41 -27.5t49 -30.5q16 -8 29.5 -15t21.5 -11t24.5 -12.5t33 -16.5t31.5 -15t24 -12 q80 -41 144.5 -81.5t108.5 -87t67.5 -99.5t23.5 -119q0 -49 -16.5 -95t-46 -85t-69.5 -69.5t-85 -44.5q113 -94 112 -263q0 -166 -119 -258q-121 -92 -286 -92q-96 0 -176 29t-138.5 82t-92.5 132t-36 177h222q14 -236 215 -236q178 0 178 166q0 94 -90 162 q-27 18 -43.5 30.5t-51.5 33.5q-16 10 -28.5 17t-22.5 11q-10 6 -25.5 14.5t-33 17.5t-33.5 17.5t-24 12.5q-80 41 -134.5 73.5t-111.5 81.5q-115 98 -115 238zM266 666q0 -96 113 -160l373 -209q123 51 122 168q0 88 -143 170l-340 194q-55 -16 -90 -61t-35 -102z" />
<glyph unicode="&#xa8;" horiz-adv-x="493" d="M-45 1227v221h233v-221h-233zM307 1227v221h234v-221h-234z" />
<glyph unicode="&#xa9;" horiz-adv-x="1638" d="M68 731q0 338 219 551q221 215 534 215q307 0 529 -215q221 -215 221 -551q0 -338 -221 -553q-220 -213 -529 -213q-330 0 -540 217q-213 219 -213 549zM231 731q0 -270 162 -450q164 -182 428 -183q248 0 418 178q168 176 168 455q0 274 -170 455q-170 178 -416 178 q-254 0 -422 -178q-168 -176 -168 -455zM412 731q0 190 116 313q117 127 314 127q72 0 134 -20.5t110.5 -60t79 -97t40.5 -131.5h-139q-16 80 -77.5 128t-147.5 48q-61 0 -111.5 -22.5t-84.5 -63.5t-52.5 -97t-18.5 -124q0 -139 74 -233q78 -96 197 -97q92 0 151.5 51.5 t69.5 131.5h141q-27 -143 -126 -229.5t-236 -86.5q-197 0 -316 131t-118 332z" />
<glyph unicode="&#xaa;" horiz-adv-x="778" d="M33 954q0 45 17.5 80t39.5 53q18 18 66 35q23 8 39 13.5t32.5 9.5t36 7l45.5 7q39 6 74 11.5t61.5 13.5t41 20.5t14.5 32.5q-4 33 -14.5 51.5t-27 27.5t-38 11t-43.5 2q-135 -2 -144 -86h-174q12 117 102.5 168t225.5 51q59 0 111.5 -12t92.5 -35.5t63.5 -59.5t23.5 -83 v-309q0 -47 35 -45q23 0 32 2v-140q-49 -16 -96 -16q-113 0 -127 100q-14 -23 -40.5 -40t-60.5 -31.5t-70 -21.5t-68 -7q-51 0 -97.5 12t-80 37t-53 60.5t-19.5 80.5zM211 965q0 -68 115 -68q174 0 174 109v90q-27 -14 -172 -39q-117 -18 -117 -92z" />
<glyph unicode="&#xab;" horiz-adv-x="948" d="M102 442v230l318 252v-211l-195 -156l195 -156v-211zM508 442v230l317 252v-211l-194 -156l194 -156v-211z" />
<glyph unicode="&#xac;" horiz-adv-x="1228" d="M98 621v208h1032v-608h-208v400h-824z" />
<glyph unicode="&#xad;" horiz-adv-x="796" d="M100 446v222h596v-222h-596z" />
<glyph unicode="&#xae;" horiz-adv-x="1638" d="M68 731q0 338 219 551q221 215 534 215q307 0 529 -215q221 -215 221 -551q0 -338 -221 -553q-220 -213 -529 -213q-330 0 -540 217q-213 219 -213 549zM231 731q0 -270 162 -450q164 -182 428 -183q248 0 418 178q168 176 168 455q0 274 -170 455q-170 178 -416 178 q-254 0 -422 -178q-168 -176 -168 -455zM530 293v848h322q156 0 232.5 -57.5t76.5 -186.5q0 -207 -221 -231l238 -373h-158l-219 362h-131v-362h-140zM670 774h155q96 0 146.5 24.5t50.5 108.5q0 115 -184 115h-168v-248z" />
<glyph unicode="&#xaf;" horiz-adv-x="493" d="M-47 1268v133h590v-133h-590z" />
<glyph unicode="&#xb0;" horiz-adv-x="819" d="M102 1155q0 127 91 217q90 90 217 90t217 -90t90 -217t-90 -217t-217 -90t-217 90t-91 217zM217 1155q0 -37 13.5 -72.5t41.5 -64.5q29 -29 65 -42t72.5 -13t71.5 13t64 42q57 57 57 136t-57 136t-136.5 57t-136.5 -57q-29 -29 -42 -63.5t-13 -71.5z" />
<glyph unicode="&#xb1;" horiz-adv-x="1228" d="M98 0v209h1032v-209h-1032zM98 571v209h412v256h209v-256h411v-209h-411v-256h-209v256h-412z" />
<glyph unicode="&#xb2;" horiz-adv-x="737" d="M43 559q2 219 205 350l74 47l79 52q23 14 46.5 34.5t42 44t29.5 50t11 55.5q-4 63 -45 95t-104 32q-141 0 -150 -191h-178q0 156 90 245t246 89q139 0 229.5 -66.5t90.5 -199.5q0 -152 -209 -289l-76 -49q-29 -18 -49.5 -30.5t-32.5 -20.5q-23 -16 -51.5 -46t-38.5 -59 h436v-143h-645z" />
<glyph unicode="&#xb3;" horiz-adv-x="737" d="M33 858h164q-4 -76 41 -125t131 -49q74 0 124 40t50 105q0 88 -66.5 118t-177.5 26v119q86 -4 146.5 26.5t60.5 98.5q0 51 -43 76.5t-98 25.5q-68 0 -110 -44t-40 -112h-164q6 141 90 220t226 79q63 0 118.5 -14t96.5 -44t64.5 -74t23.5 -105q0 -139 -131 -185v-4 q78 -14 123 -71.5t45 -143.5q0 -66 -26 -118t-71 -87.5t-106.5 -55t-134.5 -19.5q-166 0 -249 82t-87 235z" />
<glyph unicode="&#xb4;" horiz-adv-x="493" d="M92 1204l184 293h277l-291 -293h-170z" />
<glyph unicode="&#xb5;" horiz-adv-x="1175" d="M123 -391v1450h233v-649q0 -254 203 -254q260 0 260 288v615h234v-1059h-230v147h-4q-41 -78 -123 -127q-84 -49 -155 -49q-121 0 -185 74v-436h-233z" />
<glyph unicode="&#xb6;" horiz-adv-x="1228" d="M63 1077q0 199 125 292t353 93h530v-1790h-164v1657h-239v-1657h-164v1033q-197 0 -320 104q-121 104 -121 268z" />
<glyph unicode="&#xb7;" horiz-adv-x="569" d="M131 618q0 31 12.5 57.5t34 48t49 34t58.5 12.5t58.5 -12.5t49 -34t33.5 -48t12 -57.5q0 -61 -46 -108t-107 -47t-107.5 47t-46.5 108z" />
<glyph unicode="&#xb8;" horiz-adv-x="493" d="M18 -410l37 82q96 -33 133 -32q125 0 125 84q0 37 -28.5 57t-65.5 20q-47 0 -80 -20l-45 39l135 180h99l-92 -119v-4q14 6 67 6q68 0 121 -40t53 -111q0 -49 -19.5 -84t-53 -57.5t-78.5 -33t-97 -10.5q-137 0 -211 43z" />
<glyph unicode="&#xb9;" horiz-adv-x="737" d="M74 1182v118q111 0 187.5 36t94.5 108h144v-885h-178v623h-248z" />
<glyph unicode="&#xba;" horiz-adv-x="778" d="M31 1112q0 160 94 254q96 96 270 96q173 0 269 -96t96 -254t-96 -254q-94 -94 -269 -94q-176 0 -270 94t-94 254zM212 1153.5q-9 -63.5 9.5 -121t62.5 -97.5t111 -38q92 2 137.5 64.5t49.5 150.5q2 82 -50 150q-49 68 -137 67q-45 0 -77.5 -17.5t-59.5 -47.5 q-37 -47 -46 -110.5z" />
<glyph unicode="&#xbb;" horiz-adv-x="948" d="M123 190v211l194 156l-194 156v211l317 -252v-230zM528 190v211l195 156l-195 156v211l318 -252v-230z" />
<glyph unicode="&#xbc;" horiz-adv-x="1708" d="M76 1182v118q111 0 187.5 36t94.5 108h144v-885h-178v623h-248zM289 -49l858 1532h160l-856 -1532h-162zM895 199v166l379 512h199v-525h96v-153h-96v-199h-179v199h-399zM1051 352h243v324h-4z" />
<glyph unicode="&#xbd;" horiz-adv-x="1708" d="M74 1182v118q111 0 187.5 36t94.5 108h144v-885h-178v623h-248zM281 -49l858 1532h159l-856 -1532h-161zM969 0q0 68 16 122t48 98t77 82t102 75q10 6 26.5 16t41.5 25q49 29 72 45q18 12 38.5 29.5t36 40t24.5 47t5 53.5q0 63 -42 100t-107 37q-139 0 -150 -201h-178 q0 160 88 252t248 92q70 0 128 -17t101 -53t66.5 -87t23.5 -119q0 -94 -54 -160.5t-155 -128.5l-63 -39l-64 -41q-16 -10 -36.5 -25.5t-38 -32.5t-30.5 -34.5t-15 -32.5h436v-143h-645z" />
<glyph unicode="&#xbe;" horiz-adv-x="1708" d="M33 858h164q-4 -76 41 -125t131 -49q74 0 124 40t50 105q0 152 -244 142v119q86 -4 146.5 27.5t60.5 99.5q0 51 -43 76.5t-98 25.5q-68 0 -110 -44t-40 -112h-164q6 141 90 220t226 79q63 0 118.5 -14t96.5 -44t64.5 -74t23.5 -105q0 -139 -131 -185v-4q78 -14 123 -71.5 t45 -143.5q0 -66 -26 -118t-71 -87.5t-106.5 -55t-134.5 -19.5q-166 0 -249 82t-87 235zM401 -49l859 1532h159l-856 -1532h-162zM971 199v166l375 512h202v-525h97v-153h-97v-199h-178v199h-399zM1126 352h244v324h-4z" />
<glyph unicode="&#xbf;" d="M100 -6q0 70 13.5 122t44.5 93q16 23 29.5 38t23.5 25t28.5 25.5t41.5 36.5q35 29 58 50.5t38 37.5q31 31 57.5 98.5t26.5 159.5h221q0 -170 -37 -256q-35 -84 -123 -160l-63 -55q-8 -6 -26.5 -24.5t-26.5 -28.5q-23 -29 -36.5 -66t-13.5 -88q0 -104 66 -160 q63 -57 135 -57q123 0 185.5 80t62.5 215h233q2 -219 -133 -354q-133 -135 -358 -136q-193 0 -320 109t-127 295zM430 831v256h275v-256h-275z" />
<glyph unicode="&#xc0;" horiz-adv-x="1366" d="M-14 0l561 1462h272l563 -1462h-274l-137 387h-584l-137 -387h-264zM377 1901h274l187 -293h-170zM457 582h446l-219 628h-6z" />
<glyph unicode="&#xc1;" horiz-adv-x="1366" d="M-14 0l561 1462h272l563 -1462h-274l-137 387h-584l-137 -387h-264zM457 582h446l-219 628h-6zM528 1577l185 293h276l-291 -293h-170z" />
<glyph unicode="&#xc2;" horiz-adv-x="1366" d="M-14 0l561 1462h272l563 -1462h-274l-137 387h-584l-137 -387h-264zM350 1608l219 293h228l221 -293h-191l-145 184l-143 -184h-189zM457 582h446l-219 628h-6z" />
<glyph unicode="&#xc3;" horiz-adv-x="1366" d="M-14 0l561 1462h272l563 -1462h-274l-137 387h-584l-137 -387h-264zM322 1622q16 90 69 160q59 72 144 71q72 0 165 -38q51 -23 82 -31t45 -8q78 0 103 90h114q-8 -55 -25.5 -96t-41.5 -70q-63 -70 -160 -70q-51 0 -151 39q-53 20 -89 28.5t-53 8.5q-35 0 -60.5 -26.5 t-25.5 -57.5h-116zM457 582h446l-219 628h-6z" />
<glyph unicode="&#xc4;" horiz-adv-x="1366" d="M-14 0l561 1462h272l563 -1462h-274l-137 387h-584l-137 -387h-264zM391 1630v221h234v-221h-234zM457 582h446l-219 628h-6zM743 1630v221h234v-221h-234z" />
<glyph unicode="&#xc5;" horiz-adv-x="1366" d="M-14 0l561 1462h272l563 -1462h-274l-137 387h-584l-137 -387h-264zM457 582h446l-219 628h-6zM473 1739q0 86 64 147q63 63 147 64q43 0 81 -16.5t67.5 -46t46 -67.5t16.5 -81q0 -84 -64 -148q-61 -63 -147 -63q-84 0 -147 63t-64 148zM559 1739q0 -49 38 -87t87 -38 q51 0 88 38t37 87q0 51 -37 88t-88 37q-49 0 -87 -37t-38 -88z" />
<glyph unicode="&#xc6;" horiz-adv-x="1972" d="M-14 0l727 1462h1179v-221h-712v-383h667v-209h-667v-428h725v-221h-969v375h-490l-176 -375h-284zM541 569h395v672h-74z" />
<glyph unicode="&#xc7;" horiz-adv-x="1478" d="M78 731q0 324 190 545q193 223 510 221q250 0 426 -135q172 -133 195 -365h-256q-74 291 -365 291q-217 0 -332 -164q-113 -162 -112 -393q0 -233 112 -395q113 -162 332 -162q82 0 147.5 28.5t112.5 79t76 121t37 154.5h250q-16 -262 -184 -424q-166 -164 -424 -166 l-66 -86v-4q14 6 68 6q68 0 121 -40t53 -111q0 -49 -19.5 -84t-53.5 -57.5t-79 -33t-96 -10.5q-137 0 -211 43l37 82q96 -33 133 -32q125 0 125 84q0 37 -28.5 57t-65.5 20q-47 0 -80 -20l-45 39l112 149q-283 27 -452 244q-168 217 -168 518z" />
<glyph unicode="&#xc8;" horiz-adv-x="1290" d="M156 0v1462h1052v-221h-796v-383h737v-209h-737v-428h811v-221h-1067zM340 1901h274l187 -293h-170z" />
<glyph unicode="&#xc9;" horiz-adv-x="1290" d="M156 0v1462h1052v-221h-796v-383h737v-209h-737v-428h811v-221h-1067zM492 1608l184 293h276l-290 -293h-170z" />
<glyph unicode="&#xca;" horiz-adv-x="1290" d="M156 0v1462h1052v-221h-796v-383h737v-209h-737v-428h811v-221h-1067zM313 1608l219 293h228l221 -293h-190l-146 184l-143 -184h-189z" />
<glyph unicode="&#xcb;" horiz-adv-x="1290" d="M156 0v1462h1052v-221h-796v-383h737v-209h-737v-428h811v-221h-1067zM354 1630v221h234v-221h-234zM707 1630v221h233v-221h-233z" />
<glyph unicode="&#xcc;" horiz-adv-x="569" d="M-20 1901h274l186 -293h-170zM156 0v1462h256v-1462h-256z" />
<glyph unicode="&#xcd;" horiz-adv-x="569" d="M131 1597l184 293h277l-291 -293h-170zM156 0v1462h256v-1462h-256z" />
<glyph unicode="&#xce;" horiz-adv-x="569" d="M-47 1608l219 293h227l222 -293h-191l-145 184l-144 -184h-188zM156 0v1462h256v-1462h-256z" />
<glyph unicode="&#xcf;" horiz-adv-x="569" d="M-6 1630v221h233v-221h-233zM156 0v1462h256v-1462h-256zM346 1630v221h234v-221h-234z" />
<glyph unicode="&#xd0;" horiz-adv-x="1478" d="M18 649v209h138v604h606q322 0 483 -205q162 -201 162 -526q0 -324 -162 -528q-164 -203 -483 -203h-606v649h-138zM412 209h252q291 0 395 151q51 76 71.5 164t20.5 207t-20.5 207t-71.5 162q-104 154 -395 153h-252v-395h399v-209h-399v-440z" />
<glyph unicode="&#xd1;" horiz-adv-x="1478" d="M145 0v1462h271l667 -1077h4v1077h244v-1462h-270l-666 1075h-6v-1075h-244zM379 1622q16 90 70 160q59 72 143 71q72 0 166 -38q51 -23 81.5 -31t45.5 -8q78 0 102 90h115q-8 -55 -25.5 -96t-42.5 -70q-63 -70 -160 -70q-51 0 -151 39q-53 20 -89 28.5t-52 8.5 q-35 0 -60.5 -26.5t-25.5 -57.5h-117z" />
<glyph unicode="&#xd2;" horiz-adv-x="1556" d="M78 731q0 324 190 545t510 221q319 0 510 -221q190 -221 191 -545q0 -324 -191 -545q-190 -221 -510 -221q-319 0 -510 221q-190 221 -190 545zM334 731q0 -233 112 -395q113 -162 332 -162t332 162t113 395q0 231 -113 393q-115 164 -332 164t-332 -164 q-113 -162 -112 -393zM473 1901h275l186 -293h-170z" />
<glyph unicode="&#xd3;" horiz-adv-x="1556" d="M78 731q0 324 190 545t510 221q319 0 510 -221q190 -221 191 -545q0 -324 -191 -545q-190 -221 -510 -221q-319 0 -510 221q-190 221 -190 545zM334 731q0 -233 112 -395q113 -162 332 -162t332 162t113 395q0 231 -113 393q-115 164 -332 164t-332 -164 q-113 -162 -112 -393zM625 1577l184 293h276l-290 -293h-170z" />
<glyph unicode="&#xd4;" horiz-adv-x="1556" d="M78 731q0 324 190 545t510 221q319 0 510 -221q190 -221 191 -545q0 -324 -191 -545q-190 -221 -510 -221q-319 0 -510 221q-190 221 -190 545zM334 731q0 -233 112 -395q113 -162 332 -162t332 162t113 395q0 231 -113 393q-115 164 -332 164t-332 -164 q-113 -162 -112 -393zM446 1608l220 293h227l221 -293h-190l-146 184l-143 -184h-189z" />
<glyph unicode="&#xd5;" horiz-adv-x="1556" d="M78 731q0 324 190 545t510 221q319 0 510 -221q190 -221 191 -545q0 -324 -191 -545q-190 -221 -510 -221q-319 0 -510 221q-190 221 -190 545zM334 731q0 -233 112 -395q113 -162 332 -162t332 162t113 395q0 231 -113 393q-115 164 -332 164t-332 -164 q-113 -162 -112 -393zM418 1622q16 90 69 160q59 72 144 71q72 0 166 -38q51 -23 81.5 -31t45.5 -8q78 0 102 90h115q-8 -55 -25.5 -96t-42.5 -70q-63 -70 -160 -70q-27 0 -64.5 10.5t-86.5 28.5q-53 20 -89 28.5t-52 8.5q-35 0 -60.5 -26.5t-25.5 -57.5h-117z" />
<glyph unicode="&#xd6;" horiz-adv-x="1556" d="M78 731q0 324 190 545t510 221q319 0 510 -221q190 -221 191 -545q0 -324 -191 -545q-190 -221 -510 -221q-319 0 -510 221q-190 221 -190 545zM334 731q0 -233 112 -395q113 -162 332 -162t332 162t113 395q0 231 -113 393q-115 164 -332 164t-332 -164 q-113 -162 -112 -393zM487 1630v221h234v-221h-234zM840 1630v221h233v-221h-233z" />
<glyph unicode="&#xd7;" horiz-adv-x="1228" d="M113 162l356 356l-356 356l176 115l323 -325l328 325l176 -115l-358 -356l358 -356l-176 -115l-328 328l-323 -328z" />
<glyph unicode="&#xd8;" horiz-adv-x="1556" d="M78 731q0 324 190 545t510 221q272 0 455 -166l153 172l89 -73l-162 -183q166 -213 166 -516q0 -324 -191 -545q-190 -221 -510 -221q-274 0 -454 168l-156 -174l-86 74l162 184q-166 211 -166 514zM334 731q0 -195 74 -330l673 758q-115 129 -303 129q-217 0 -332 -164 q-113 -162 -112 -393zM475 303q119 -129 303 -129q219 0 332 162t113 395q0 193 -76 330z" />
<glyph unicode="&#xd9;" horiz-adv-x="1478" d="M139 526v936h256v-852q0 -37 1 -65.5t3 -55t7.5 -53t15.5 -59.5q25 -90 96.5 -138.5t220.5 -52.5q98 -4 164 25t101 65q35 39 53 101q8 33 14 59.5t8 53t3 55t1 65.5v852h256v-936q0 -137 -42 -242.5t-119.5 -176t-188 -106.5t-250.5 -36q-139 0 -249.5 36t-188.5 106.5 t-120 176t-42 242.5zM434 1901h275l186 -293h-170z" />
<glyph unicode="&#xda;" horiz-adv-x="1478" d="M139 526v936h256v-852q0 -37 1 -65.5t3 -55t7.5 -53t15.5 -59.5q25 -90 96.5 -138.5t220.5 -52.5q98 -4 164 25t101 65q35 39 53 101q8 33 14 59.5t8 53t3 55t1 65.5v852h256v-936q0 -137 -42 -242.5t-119.5 -176t-188 -106.5t-250.5 -36q-139 0 -249.5 36t-188.5 106.5 t-120 176t-42 242.5zM586 1577l184 293h277l-291 -293h-170z" />
<glyph unicode="&#xdb;" horiz-adv-x="1478" d="M139 526v936h256v-852q0 -37 1 -65.5t3 -55t7.5 -53t15.5 -59.5q25 -90 96.5 -138.5t220.5 -52.5q98 -4 164 25t101 65q35 39 53 101q8 33 14 59.5t8 53t3 55t1 65.5v852h256v-936q0 -137 -42 -242.5t-119.5 -176t-188 -106.5t-250.5 -36q-139 0 -249.5 36t-188.5 106.5 t-120 176t-42 242.5zM408 1608l219 293h227l221 -293h-190l-146 184l-143 -184h-188z" />
<glyph unicode="&#xdc;" horiz-adv-x="1478" d="M139 526v936h256v-852q0 -37 1 -65.5t3 -55t7.5 -53t15.5 -59.5q25 -90 96.5 -138.5t220.5 -52.5q98 -4 164 25t101 65q35 39 53 101q8 33 14 59.5t8 53t3 55t1 65.5v852h256v-936q0 -137 -42 -242.5t-119.5 -176t-188 -106.5t-250.5 -36q-139 0 -249.5 36t-188.5 106.5 t-120 176t-42 242.5zM449 1630v221h233v-221h-233zM801 1630v221h233v-221h-233z" />
<glyph unicode="&#xdd;" horiz-adv-x="1327" d="M-12 1462h297l387 -655l381 655h286l-546 -889v-573h-256v573zM510 1577l184 293h277l-291 -293h-170z" />
<glyph unicode="&#xde;" horiz-adv-x="1366" d="M156 0v1462h256v-221h389q147 0 251.5 -43t153.5 -117q51 -74 71.5 -144.5t20.5 -148.5t-20.5 -148.5t-71.5 -141.5q-49 -72 -153.5 -115t-251.5 -43h-389v-340h-256zM412 549h374q102 0 179 57q78 59 77 185q0 242 -251 241h-379v-483z" />
<glyph unicode="&#xdf;" horiz-adv-x="1175" d="M129 0v1071q0 199 125 311q127 115 324 115q178 0 305 -100q131 -100 131 -269q0 -111 -52.5 -194.5t-156.5 -114.5v-4q125 -14 199 -117q76 -100 75 -233q0 -217 -129 -354q-127 -139 -340 -140q-57 0 -114 6v185q31 -6 79 -6q86 0 143.5 28.5t82.5 79.5q27 53 36 101.5 t9 109.5q0 131 -113 201q-84 51 -235 51v154q72 0 121 14t81 39q80 63 80 172q0 207 -207 207q-43 0 -81.5 -14.5t-67.5 -45t-45.5 -82t-16.5 -124.5v-1047h-233z" />
<glyph unicode="&#xe0;" d="M66 281q0 188 133 256q66 33 125 47t149 26q39 4 94 13l92 14q51 8 94.5 35.5t37.5 87.5q0 143 -220 143q-104 0 -164.5 -41t-68.5 -127h-234q12 186 146 271q133 82 336 81q174 0 299 -75q125 -76 125 -232v-544q0 -43 12 -61.5t43 -18.5q16 0 30.5 1t26.5 3v-162 q-74 -27 -147 -27q-156 0 -180 129q-66 -63 -166.5 -96t-200.5 -33q-154 0 -258 80q-104 82 -104 230zM264 1497h275l186 -293h-170zM299 291q0 -70 68 -103t147 -32q94 0 178 49q84 53 84 151v174q-33 -20 -78 -32q-45 -10 -112 -19l-97 -12q-88 -10 -139 -50t-51 -126z " />
<glyph unicode="&#xe1;" d="M66 281q0 188 133 256q66 33 125 47t149 26q39 4 94 13l92 14q51 8 94.5 35.5t37.5 87.5q0 143 -220 143q-104 0 -164.5 -41t-68.5 -127h-234q12 186 146 271q133 82 336 81q174 0 299 -75q125 -76 125 -232v-544q0 -43 12 -61.5t43 -18.5q16 0 30.5 1t26.5 3v-162 q-74 -27 -147 -27q-156 0 -180 129q-66 -63 -166.5 -96t-200.5 -33q-154 0 -258 80q-104 82 -104 230zM299 291q0 -70 68 -103t147 -32q94 0 178 49q84 53 84 151v174q-33 -20 -78 -32q-45 -10 -112 -19l-97 -12q-88 -10 -139 -50t-51 -126zM416 1204l184 293h277l-291 -293 h-170z" />
<glyph unicode="&#xe2;" d="M66 281q0 188 133 256q66 33 125 47t149 26q39 4 94 13l92 14q51 8 94.5 35.5t37.5 87.5q0 143 -220 143q-104 0 -164.5 -41t-68.5 -127h-234q12 186 146 271q133 82 336 81q174 0 299 -75q125 -76 125 -232v-544q0 -43 12 -61.5t43 -18.5q16 0 30.5 1t26.5 3v-162 q-74 -27 -147 -27q-156 0 -180 129q-66 -63 -166.5 -96t-200.5 -33q-154 0 -258 80q-104 82 -104 230zM238 1204l219 293h227l221 -293h-190l-146 185l-143 -185h-188zM299 291q0 -70 68 -103t147 -32q94 0 178 49q84 53 84 151v174q-33 -20 -78 -32q-45 -10 -112 -19 l-97 -12q-88 -10 -139 -50t-51 -126z" />
<glyph unicode="&#xe3;" d="M66 281q0 188 133 256q66 33 125 47t149 26q39 4 94 13l92 14q51 8 94.5 35.5t37.5 87.5q0 143 -220 143q-104 0 -164.5 -41t-68.5 -127h-234q12 186 146 271q133 82 336 81q174 0 299 -75q125 -76 125 -232v-544q0 -43 12 -61.5t43 -18.5q16 0 30.5 1t26.5 3v-162 q-74 -27 -147 -27q-156 0 -180 129q-66 -63 -166.5 -96t-200.5 -33q-154 0 -258 80q-104 82 -104 230zM209 1219q16 90 70 159q59 72 143 72q72 0 166 -39q51 -23 81.5 -31t45.5 -8q78 0 102 90h115q-8 -55 -25.5 -96t-42.5 -70q-63 -70 -159 -69q-27 0 -65 10t-87 29 q-53 20 -89 28.5t-52 8.5q-35 0 -60.5 -27t-25.5 -57h-117zM299 291q0 -70 68 -103t147 -32q94 0 178 49q84 53 84 151v174q-33 -20 -78 -32q-45 -10 -112 -19l-97 -12q-88 -10 -139 -50t-51 -126z" />
<glyph unicode="&#xe4;" d="M66 281q0 188 133 256q66 33 125 47t149 26q39 4 94 13l92 14q51 8 94.5 35.5t37.5 87.5q0 143 -220 143q-104 0 -164.5 -41t-68.5 -127h-234q12 186 146 271q133 82 336 81q174 0 299 -75q125 -76 125 -232v-544q0 -43 12 -61.5t43 -18.5q16 0 30.5 1t26.5 3v-162 q-74 -27 -147 -27q-156 0 -180 129q-66 -63 -166.5 -96t-200.5 -33q-154 0 -258 80q-104 82 -104 230zM279 1227v221h233v-221h-233zM299 291q0 -70 68 -103t147 -32q94 0 178 49q84 53 84 151v174q-33 -20 -78 -32q-45 -10 -112 -19l-97 -12q-88 -10 -139 -50t-51 -126z M631 1227v221h233v-221h-233z" />
<glyph unicode="&#xe5;" d="M66 281q0 188 133 256q66 33 125 47t149 26q39 4 94 13l92 14q51 8 94.5 35.5t37.5 87.5q0 143 -220 143q-104 0 -164.5 -41t-68.5 -127h-234q12 186 146 271q133 82 336 81q174 0 299 -75q125 -76 125 -232v-544q0 -43 12 -61.5t43 -18.5q16 0 30.5 1t26.5 3v-162 q-74 -27 -147 -27q-156 0 -180 129q-66 -63 -166.5 -96t-200.5 -33q-154 0 -258 80q-104 82 -104 230zM299 291q0 -70 68 -103t147 -32q94 0 178 49q84 53 84 151v174q-33 -20 -78 -32q-45 -10 -112 -19l-97 -12q-88 -10 -139 -50t-51 -126zM360 1335q0 86 64 148 q63 63 147 63q43 0 81 -16.5t68 -46t46 -67.5t16 -81q0 -84 -63 -147q-62 -64 -148 -64q-84 0 -147 64q-63 63 -64 147zM446 1335q0 -49 38 -87t87 -38q51 0 88 38t37 87q0 51 -36.5 88t-88.5 37q-49 0 -87 -37t-38 -88z" />
<glyph unicode="&#xe6;" horiz-adv-x="1820" d="M66 281q0 188 133 256q33 16 62.5 27t62 19.5t68.5 14.5t81 12l80 13q47 8 74.5 11t60.5 11q43 10 66.5 38t23.5 77q0 143 -207 143q-104 0 -164.5 -41t-68.5 -127h-234q12 186 146 271q131 82 330 81q264 0 358 -143q106 143 336 143q258 0 385 -172q125 -168 106 -446 h-768q0 -66 17.5 -123t52.5 -99t87 -66.5t120 -24.5q184 0 250 178h233q-45 -168 -173 -265.5t-306 -97.5q-279 0 -389 195q-133 -195 -440 -195q-84 0 -154 20.5t-121 59.5t-79.5 97.5t-28.5 132.5zM299 291q0 -74 62.5 -104.5t150.5 -30.5q106 0 184 57q80 57 80 156v157 q-20 -20 -65 -30q-20 -4 -49 -8.5t-66 -8.5q-72 -6 -104 -12q-92 -14 -142.5 -52t-50.5 -124zM997 623h535q2 129 -68.5 204.5t-199.5 75.5q-119 0 -188.5 -79t-78.5 -201z" />
<glyph unicode="&#xe7;" d="M72 518q0 252 135 410q135 160 387 159q195 0 328 -98q135 -100 149 -284h-233q-14 94 -79 146t-163 52q-45 0 -96 -15.5t-94.5 -57.5t-72 -117.5t-28.5 -194.5q0 -150 70 -256t211 -106q104 0 169.5 64.5t82.5 176.5h233q-31 -197 -143.5 -305t-298.5 -117l-72 -94v-4 q14 6 68 6q68 0 121 -40t53 -111q0 -49 -19.5 -84t-53.5 -57.5t-79 -33t-96 -10.5q-137 0 -211 43l37 82q96 -33 133 -32q125 0 125 84q0 37 -28.5 57t-65.5 20q-47 0 -80 -20l-45 39l116 155q-221 16 -339 166q-121 152 -121 377z" />
<glyph unicode="&#xe8;" d="M72 528q0 231 141 396q141 164 371 163q244 0 387 -186t112 -432h-778q0 -68 18.5 -125t54.5 -99t89 -65.5t123 -23.5q197 0 258 176h221q-18 -86 -62 -152.5t-106.5 -113t-142.5 -71t-168 -24.5q-244 0 -381 154q-137 152 -137 403zM264 1497h275l186 -293h-170z M305 623h545q-4 57 -23.5 108t-54.5 90t-83 60.5t-105 21.5q-121 0 -197 -80q-80 -82 -82 -200z" />
<glyph unicode="&#xe9;" d="M72 528q0 231 141 396q141 164 371 163q244 0 387 -186t112 -432h-778q0 -68 18.5 -125t54.5 -99t89 -65.5t123 -23.5q197 0 258 176h221q-18 -86 -62 -152.5t-106.5 -113t-142.5 -71t-168 -24.5q-244 0 -381 154q-137 152 -137 403zM305 623h545q-4 57 -23.5 108 t-54.5 90t-83 60.5t-105 21.5q-121 0 -197 -80q-80 -82 -82 -200zM416 1204l184 293h277l-291 -293h-170z" />
<glyph unicode="&#xea;" d="M72 528q0 231 141 396q141 164 371 163q244 0 387 -186t112 -432h-778q0 -68 18.5 -125t54.5 -99t89 -65.5t123 -23.5q197 0 258 176h221q-18 -86 -62 -152.5t-106.5 -113t-142.5 -71t-168 -24.5q-244 0 -381 154q-137 152 -137 403zM238 1204l219 293h227l221 -293h-190 l-146 185l-143 -185h-188zM305 623h545q-4 57 -23.5 108t-54.5 90t-83 60.5t-105 21.5q-121 0 -197 -80q-80 -82 -82 -200z" />
<glyph unicode="&#xeb;" d="M72 528q0 231 141 396q141 164 371 163q244 0 387 -186t112 -432h-778q0 -68 18.5 -125t54.5 -99t89 -65.5t123 -23.5q197 0 258 176h221q-18 -86 -62 -152.5t-106.5 -113t-142.5 -71t-168 -24.5q-244 0 -381 154q-137 152 -137 403zM279 1227v221h233v-221h-233z M305 623h545q-4 57 -23.5 108t-54.5 90t-83 60.5t-105 21.5q-121 0 -197 -80q-80 -82 -82 -200zM631 1227v221h233v-221h-233z" />
<glyph unicode="&#xec;" horiz-adv-x="493" d="M-59 1497h274l186 -293h-170zM129 0v1059h233v-1059h-233z" />
<glyph unicode="&#xed;" horiz-adv-x="493" d="M92 1204l184 293h277l-291 -293h-170zM129 0v1059h233v-1059h-233z" />
<glyph unicode="&#xee;" horiz-adv-x="493" d="M-86 1204l219 293h227l222 -293h-191l-145 185l-144 -185h-188zM129 0v1059h233v-1059h-233z" />
<glyph unicode="&#xef;" horiz-adv-x="493" d="M-45 1227v221h233v-221h-233zM129 0v1059h233v-1059h-233zM307 1227v221h234v-221h-234z" />
<glyph unicode="&#xf0;" horiz-adv-x="1214" d="M86 516q0 213 125 365q125 156 332 155q166 0 293 -90h4q-57 129 -222 268l-221 -106l-102 100l197 95q-63 29 -107.5 45t-67.5 24l156 125q57 -18 109.5 -44t103.5 -58l215 102l100 -100l-192 -92q154 -125 235.5 -299.5t81.5 -372.5q0 -295 -135 -479 q-133 -182 -416 -183q-229 0 -360 150q-129 150 -129 395zM319 502q0 -74 17.5 -137.5t51.5 -109.5t84 -72.5t118 -26.5q135 0 219 102q84 106 84 244q0 145 -72 248q-72 102 -209 102q-154 0 -223.5 -97.5t-69.5 -252.5z" />
<glyph unicode="&#xf1;" horiz-adv-x="1175" d="M123 0v1059h221v-156l4 -4q53 88 139 138t191 50q178 0 276.5 -91t98.5 -269v-727h-234v666q0 123 -51 180t-156 57q-57 0 -104 -21.5t-81 -58.5t-52.5 -88t-18.5 -110v-625h-233zM227 1219q16 90 70 159q59 72 143 72q72 0 166 -39q51 -23 82 -31t45 -8q78 0 103 90h114 q-8 -55 -25.5 -96t-41.5 -70q-63 -70 -160 -69q-27 0 -64.5 10t-87.5 29q-53 20 -89 28.5t-52 8.5q-35 0 -60.5 -27t-25.5 -57h-117z" />
<glyph unicode="&#xf2;" horiz-adv-x="1214" d="M74 530q0 248 141 402q143 156 393 155q248 0 391 -155q143 -156 144 -402q0 -250 -144 -405q-141 -154 -391 -154q-252 0 -393 154q-141 153 -141 405zM301 1497h274l187 -293h-170zM307 530q0 -156 76 -264q76 -111 225 -110q145 0 223 110q78 112 78 264 q0 150 -78 263q-78 111 -223 110q-150 0 -225 -110q-76 -109 -76 -263z" />
<glyph unicode="&#xf3;" horiz-adv-x="1214" d="M74 530q0 248 141 402q143 156 393 155q248 0 391 -155q143 -156 144 -402q0 -250 -144 -405q-141 -154 -391 -154q-252 0 -393 154q-141 153 -141 405zM307 530q0 -156 76 -264q76 -111 225 -110q145 0 223 110q78 112 78 264q0 150 -78 263q-78 111 -223 110 q-150 0 -225 -110q-76 -109 -76 -263zM453 1204l184 293h276l-290 -293h-170z" />
<glyph unicode="&#xf4;" horiz-adv-x="1214" d="M74 530q0 248 141 402q143 156 393 155q248 0 391 -155q143 -156 144 -402q0 -250 -144 -405q-141 -154 -391 -154q-252 0 -393 154q-141 153 -141 405zM274 1204l220 293h227l221 -293h-190l-146 185l-143 -185h-189zM307 530q0 -156 76 -264q76 -111 225 -110 q145 0 223 110q78 112 78 264q0 150 -78 263q-78 111 -223 110q-150 0 -225 -110q-76 -109 -76 -263z" />
<glyph unicode="&#xf5;" horiz-adv-x="1214" d="M74 530q0 248 141 402q143 156 393 155q248 0 391 -155q143 -156 144 -402q0 -250 -144 -405q-141 -154 -391 -154q-252 0 -393 154q-141 153 -141 405zM246 1219q16 90 69 159q59 72 144 72q72 0 166 -39q51 -23 81.5 -31t45.5 -8q78 0 102 90h115q-8 -55 -25.5 -96 t-42.5 -70q-63 -70 -160 -69q-51 0 -151 39q-53 20 -89 28.5t-52 8.5q-35 0 -61 -27t-26 -57h-116zM307 530q0 -156 76 -264q76 -111 225 -110q145 0 223 110q78 112 78 264q0 150 -78 263q-78 111 -223 110q-150 0 -225 -110q-76 -109 -76 -263z" />
<glyph unicode="&#xf6;" horiz-adv-x="1214" d="M74 530q0 248 141 402q143 156 393 155q248 0 391 -155q143 -156 144 -402q0 -250 -144 -405q-141 -154 -391 -154q-252 0 -393 154q-141 153 -141 405zM307 530q0 -156 76 -264q76 -111 225 -110q145 0 223 110q78 112 78 264q0 150 -78 263q-78 111 -223 110 q-150 0 -225 -110q-76 -109 -76 -263zM315 1227v221h234v-221h-234zM668 1227v221h233v-221h-233z" />
<glyph unicode="&#xf7;" horiz-adv-x="1228" d="M98 414v209h1032v-209h-1032zM467 96q0 61 44 104.5t103 43.5t103.5 -44t44.5 -104q0 -29 -12.5 -54.5t-32 -47t-46 -33.5t-55.5 -12q-59 0 -104 44t-45 103zM467 940q0 61 44 104t103 43t103.5 -44t44.5 -103q0 -29 -12.5 -54.5t-32 -47t-46 -33.5t-55.5 -12 q-59 0 -104 44t-45 103z" />
<glyph unicode="&#xf8;" horiz-adv-x="1214" d="M66 0l133 147q-125 150 -125 383q0 248 141 402q143 156 393 155q215 0 348 -112l129 141l66 -57l-133 -146q125 -152 125 -383q0 -250 -144 -405q-141 -154 -391 -154q-207 0 -346 115l-131 -143zM307 530q0 -119 47 -213l457 500q-80 86 -203 86q-150 0 -225 -110 q-76 -109 -76 -263zM406 242q80 -86 202 -86q145 0 223 110q78 113 78 264q0 117 -47 211z" />
<glyph unicode="&#xf9;" horiz-adv-x="1175" d="M123 387v672h233v-649q0 -254 203 -254q260 0 260 288v615h234v-1059h-230v147h-4q-23 -39 -55.5 -71.5t-72.5 -55t-85 -36t-88 -13.5q-205 0 -300 102.5t-95 313.5zM283 1497h274l186 -293h-170z" />
<glyph unicode="&#xfa;" horiz-adv-x="1175" d="M123 387v672h233v-649q0 -254 203 -254q260 0 260 288v615h234v-1059h-230v147h-4q-23 -39 -55.5 -71.5t-72.5 -55t-85 -36t-88 -13.5q-205 0 -300 102.5t-95 313.5zM434 1204l184 293h277l-291 -293h-170z" />
<glyph unicode="&#xfb;" horiz-adv-x="1175" d="M123 387v672h233v-649q0 -254 203 -254q260 0 260 288v615h234v-1059h-230v147h-4q-23 -39 -55.5 -71.5t-72.5 -55t-85 -36t-88 -13.5q-205 0 -300 102.5t-95 313.5zM256 1204l219 293h227l222 -293h-191l-145 185l-144 -185h-188z" />
<glyph unicode="&#xfc;" horiz-adv-x="1175" d="M123 387v672h233v-649q0 -254 203 -254q260 0 260 288v615h234v-1059h-230v147h-4q-23 -39 -55.5 -71.5t-72.5 -55t-85 -36t-88 -13.5q-205 0 -300 102.5t-95 313.5zM297 1227v221h233v-221h-233zM649 1227v221h234v-221h-234z" />
<glyph unicode="&#xfd;" horiz-adv-x="1062" d="M6 1059h256l277 -791h4l268 791h244l-412 -1116q-35 -94 -64.5 -152.5t-50.5 -87.5q-90 -123 -260 -123q-82 0 -162 12v197q43 -8 71 -11t40 -3q74 0 105.5 34.5t58.5 112.5l27 82zM377 1204l184 293h277l-291 -293h-170z" />
<glyph unicode="&#xfe;" horiz-adv-x="1251" d="M129 -391v1853h233v-540h5q47 76 135 120.5t180 44.5q238 0 367 -159q129 -160 129 -404q0 -231 -119 -393q-117 -160 -338 -160q-111 0 -207 40t-147 126h-5v-528h-233zM354 528q0 -82 20.5 -150.5t59.5 -117.5t94.5 -76.5t122.5 -27.5q147 0 219 108q74 106 74 264 q0 152 -78 265q-78 111 -215 110q-143 0 -220 -100.5t-77 -274.5z" />
<glyph unicode="&#xff;" horiz-adv-x="1062" d="M6 1059h256l277 -791h4l268 791h244l-412 -1116q-35 -94 -64.5 -152.5t-50.5 -87.5q-90 -123 -260 -123q-82 0 -162 12v197q43 -8 71 -11t40 -3q74 0 105.5 34.5t58.5 112.5l27 82zM240 1227v221h233v-221h-233zM592 1227v221h233v-221h-233z" />
<glyph unicode="&#x152;" horiz-adv-x="2238" d="M84 725q0 207 78 381q39 86 100.5 158.5t139 124t172 80t198.5 28.5q236 0 369 -151v116h999v-221h-766v-383h703v-209h-703v-428h780v-221h-1013v131q-141 -166 -385 -166q-209 0 -365 107q-156 106 -231.5 275t-75.5 378zM340 729q0 -143 43 -266q23 -61 59.5 -113.5 t88 -91.5t114 -61.5t135.5 -22.5q156 0 252 86q98 88 98 189v544q0 61 -23.5 114.5t-67.5 93.5t-109.5 63.5t-149.5 23.5q-150 0 -250 -86q-104 -86 -147 -208t-43 -265z" />
<glyph unicode="&#x153;" horiz-adv-x="1857" d="M72 532q0 238 135 396q135 160 371 159q268 0 370 -178q113 178 371 178q137 0 231.5 -50t151.5 -135t81.5 -197.5t24.5 -235.5h-774q2 -141 72 -227t205 -86q92 0 163.5 47t88.5 133h233q-43 -178 -169 -271.5t-312 -93.5q-276 0 -379 195q-102 -195 -377 -195 q-238 0 -362 160q-125 158 -125 401zM305 537q0 -70 11.5 -137.5t42 -122t83 -88t133.5 -33.5q82 0 134.5 33.5t83 88t42 122t11.5 137.5q0 74 -17.5 138t-50.5 118q-68 111 -203 110q-137 0 -204 -110q-66 -109 -66 -256zM1034 623h541q-8 135 -77 207.5t-198 72.5 q-57 0 -105 -21.5t-83 -60.5t-55.5 -90t-22.5 -108z" />
<glyph unicode="&#x178;" horiz-adv-x="1327" d="M-12 1462h297l387 -655l381 655h286l-546 -889v-573h-256v573zM373 1630v221h233v-221h-233zM725 1630v221h233v-221h-233z" />
<glyph unicode="&#x2c6;" horiz-adv-x="493" d="M-86 1204l219 293h227l222 -293h-191l-145 185l-144 -185h-188z" />
<glyph unicode="&#x2dc;" horiz-adv-x="493" d="M-115 1219q16 92 72 159q55 72 141 72q72 0 166 -39q51 -23 82 -31t45 -8q78 0 103 90h114q-8 -55 -25.5 -96t-41.5 -70q-63 -70 -160 -69q-27 0 -64.5 10t-87.5 29q-53 20 -89 28.5t-52 8.5q-35 0 -60.5 -27t-25.5 -57h-117z" />
<glyph unicode="&#x2000;" horiz-adv-x="975" />
<glyph unicode="&#x2001;" horiz-adv-x="1950" />
<glyph unicode="&#x2002;" horiz-adv-x="975" />
<glyph unicode="&#x2003;" horiz-adv-x="1950" />
<glyph unicode="&#x2004;" horiz-adv-x="650" />
<glyph unicode="&#x2005;" horiz-adv-x="487" />
<glyph unicode="&#x2006;" horiz-adv-x="325" />
<glyph unicode="&#x2007;" horiz-adv-x="325" />
<glyph unicode="&#x2008;" horiz-adv-x="243" />
<glyph unicode="&#x2009;" horiz-adv-x="390" />
<glyph unicode="&#x200a;" horiz-adv-x="108" />
<glyph unicode="&#x2010;" horiz-adv-x="796" d="M100 446v222h596v-222h-596z" />
<glyph unicode="&#x2011;" horiz-adv-x="796" d="M100 446v222h596v-222h-596z" />
<glyph unicode="&#x2012;" horiz-adv-x="796" d="M100 446v222h596v-222h-596z" />
<glyph unicode="&#x2013;" horiz-adv-x="1024" d="M0 446v222h1024v-222h-1024z" />
<glyph unicode="&#x2014;" horiz-adv-x="2048" d="M266 446v222h1516v-222h-1516z" />
<glyph unicode="&#x2018;" horiz-adv-x="569" d="M158 885v276q0 111 71.5 190t184.5 111v-119q-125 -43 -125 -182h125v-276h-256z" />
<glyph unicode="&#x2019;" horiz-adv-x="569" d="M158 885v119q125 14 125 182h-125v276h256v-276q0 -119 -70 -203t-186 -98z" />
<glyph unicode="&#x201a;" horiz-adv-x="569" d="M158 0v276h256v-276q0 -111 -72 -189.5t-184 -111.5v119q125 43 125 182h-125z" />
<glyph unicode="&#x201c;" horiz-adv-x="909" d="M123 885v276q0 111 71.5 190t184.5 111v-119q-125 -43 -125 -182h125v-276h-256zM530 885v276q0 111 72 190t184 111v-119q-125 -43 -124 -182h124v-276h-256z" />
<glyph unicode="&#x201d;" horiz-adv-x="909" d="M123 885v119q125 43 125 182h-125v276h256v-276q0 -111 -71.5 -189.5t-184.5 -111.5zM530 885v119q125 43 125 182h-125v276h256v-276q0 -111 -71.5 -189.5t-184.5 -111.5z" />
<glyph unicode="&#x201e;" horiz-adv-x="909" d="M123 0v276h256v-276q0 -111 -71.5 -189.5t-184.5 -111.5v119q125 43 125 182h-125zM530 0v276h256v-276q0 -111 -71.5 -189.5t-184.5 -111.5v119q125 43 125 182h-125z" />
<glyph unicode="&#x2022;" horiz-adv-x="1024" d="M147 731q0 152 107 258q106 106 258 107q152 0 258 -107q109 -109 109 -258q0 -152 -109 -260q-106 -106 -258 -106t-258 106t-107 260z" />
<glyph unicode="&#x2026;" horiz-adv-x="2048" d="M199 0v276h284v-276h-284zM881 0v276h284v-276h-284zM1563 0v276h284v-276h-284z" />
<glyph unicode="&#x202f;" horiz-adv-x="390" />
<glyph unicode="&#x2039;" horiz-adv-x="530" d="M102 442v230l318 252v-211l-195 -156l195 -156v-211z" />
<glyph unicode="&#x203a;" horiz-adv-x="530" d="M111 190v211l194 156l-194 156v211l317 -252v-230z" />
<glyph unicode="&#x205f;" horiz-adv-x="487" />
<glyph unicode="&#x20ac;" d="M-31 500l62 133h71q-4 41 -5 80t3 73h-131l62 134h86q27 147 95.5 262.5t166.5 185.5q135 94 321 94q80 0 149 -11t126 -38q78 -35 143 -106l-92 -201q-51 86 -143 133q-76 29 -164 29q-143 0 -230 -74q-102 -86 -139 -274l594 4l-61 -133l-549 -5q-4 -41 0 -153h475 l-61 -133h-392q14 -162 133 -258q92 -78 230 -76q104 0 182 31q94 37 160 114v-231q-68 -51 -133 -72q-41 -12 -111 -24q-68 -12 -112 -13q-100 0 -184.5 24.5t-149.5 72.5q-98 68 -164 182.5t-86 249.5h-152z" />
<glyph unicode="&#x2122;" horiz-adv-x="2027" d="M121 1329v133h680v-133h-258v-711h-164v711h-258zM973 618v844h237l232 -598l229 598h236v-844h-154v660h-4l-252 -660h-115l-252 660h-4v-660h-153z" />
<glyph unicode="&#x25fc;" horiz-adv-x="1054" d="M0 0v1055h1055v-1055h-1055z" />
<glyph unicode="&#xfb01;" d="M18 885v174h175v88q0 184 77 250q82 66 215 65q115 0 164 -14v-182q-47 12 -108 12q-115 0 -115 -111v-108h199v-174h-199v-885h-233v885h-175zM774 0v1059h234v-1059h-234zM774 1241v221h234v-221h-234z" />
<glyph unicode="&#xfb02;" d="M18 885v174h175v88q0 184 77 250q82 66 215 65q115 0 164 -14v-182q-47 12 -108 12q-115 0 -115 -111v-108h199v-174h-199v-885h-233v885h-175zM774 0v1462h234v-1462h-234z" />
</font>
</defs>
</svg>
