<?xml version="1.0" standalone="no"?>
<!DOCTYPE svg PUBLIC "-//W3C//DTD SVG 1.1//EN" "http://www.w3.org/Graphics/SVG/1.1/DTD/svg11.dtd" >
<svg xmlns="http://www.w3.org/2000/svg">
<metadata></metadata>
<defs>
<font id="lmsc3regular" horiz-adv-x="1138" >
<font-face units-per-em="2048" ascent="1587" descent="-461" />
<missing-glyph horiz-adv-x="569" />
<glyph horiz-adv-x="0" />
<glyph unicode="&#xd;" horiz-adv-x="681" />
<glyph horiz-adv-x="0" />
<glyph horiz-adv-x="0" />
<glyph unicode=" "  horiz-adv-x="569" />
<glyph unicode="&#x09;" horiz-adv-x="569" />
<glyph unicode="&#xa0;" horiz-adv-x="569" />
<glyph unicode="!" horiz-adv-x="530" d="M152 0v227h227v-227h-227zM168 1012v450h194v-450l-51 -637h-92z" />
<glyph unicode="&#x22;" horiz-adv-x="872" d="M223 934v528h139v-528h-139zM510 934v528h139v-528h-139z" />
<glyph unicode="#" d="M70 422v139h219l43 307h-209v140h227l60 419h141l-59 -419h253l60 419h141l-59 -419h182v-140h-201l-43 -307h187v-139h-207l-60 -422h-141l60 422h-254l-60 -422h-141l59 422h-198zM430 561h254l43 307h-254z" />
<glyph unicode="$" d="M51 446h174q4 -135 82 -215.5t207 -101.5v543q-227 55 -324 139q-96 84 -96 256q0 182 119 301t301 129v135h113v-137q322 -41 403 -405h-174q-41 203 -229 237v-504l123 -32q47 -12 96 -37t104 -68t90 -115.5t35 -160.5q0 -193 -125 -312t-323 -133v-168h-113v168 q-205 20 -325.5 145.5t-137.5 335.5zM279 1085q0 -49 14 -84.5t43 -62.5t73 -46.5t105 -37.5v479q-104 -12 -169.5 -74.5t-65.5 -173.5zM627 129q264 20 264 262q0 106 -66.5 160.5t-197.5 91.5v-514z" />
<glyph unicode="%" horiz-adv-x="2048" d="M188 1036q0 92 18.5 169t58.5 131.5t103.5 85t151.5 30.5q328 0 328 -410q0 -176 -82 -294q-80 -117 -246 -117q-86 0 -149.5 28.5t-103.5 82t-59.5 128t-19.5 166.5zM342 1040q0 -297 172 -297q180 0 180 299q0 297 -174 297q-178 0 -178 -299zM385 -45l1102 1524h174 l-1100 -1524h-176zM1200 381q0 92 18.5 169t58.5 131t103.5 85t151.5 31q328 0 328 -410q0 -176 -82 -295q-80 -117 -246 -117q-86 0 -149.5 29t-103.5 82t-59.5 128t-19.5 167zM1354 385q0 -297 172 -297q180 0 180 299q0 297 -174 297q-178 0 -178 -299z" />
<glyph unicode="&#x26;" horiz-adv-x="1290" d="M68 375q0 80 22.5 142.5t65.5 114.5t106.5 97t147.5 88l-48 64q-16 23 -28 40t-19 27q-12 18 -24 43t-23.5 52.5t-17.5 58.5t-2 59q0 125 88 213t242 88q145 0 249 -80t105 -219q0 -221 -275 -379l265 -321q41 115 47 227h166q-10 -123 -31 -190q-18 -68 -68 -170 l285 -330h-227l-156 182q-63 -100 -176 -153.5t-238 -53.5q-141 0 -238.5 44t-140.5 112q-45 70 -61 129t-16 115zM252 377q0 -106 84 -178q82 -70 194 -70q195 0 312 174l-336 404q-127 -72 -191 -142q-63 -70 -63 -188zM422 1153q0 -29 12 -56.5t23 -54.5 q6 -14 24.5 -38.5t24.5 -34.5l31 -37l26 -33q29 16 51.5 32.5t38.5 31.5q37 29 71 81t34 109q0 66 -46 111t-122 45q-68 0 -118 -40t-50 -116z" />
<glyph unicode="'" horiz-adv-x="569" d="M215 934v528h139v-528h-139z" />
<glyph unicode="(" horiz-adv-x="530" d="M96 553q0 121 21.5 245t62.5 244.5t100.5 235.5t137.5 219h133q-270 -428 -270 -944q0 -522 270 -959h-133q-80 123 -140.5 241t-100.5 235.5t-60.5 236.5t-20.5 246z" />
<glyph unicode=")" horiz-adv-x="530" d="M-20 -406q270 426 270 945q0 522 -270 958h133q80 -123 140 -240.5t100 -235.5t60.5 -236.5t20.5 -245.5q0 -121 -21.5 -245t-62.5 -245t-100.5 -235.5t-136.5 -219.5h-133z" />
<glyph unicode="*" horiz-adv-x="720" d="M49 1214l37 99l217 -82v231h109v-231l219 82l41 -99l-223 -77l135 -187l-84 -63l-142 196l-133 -196l-92 63l133 187z" />
<glyph unicode="+" horiz-adv-x="1228" d="M98 449v139h447v448h139v-448h446v-139h-446v-449h-139v449h-447z" />
<glyph unicode="," horiz-adv-x="569" d="M170 0v227h227v-207q0 -256 -225 -321v102q63 20 93 81t26 118h-121z" />
<glyph unicode="-" horiz-adv-x="796" d="M102 487v164h592v-164h-592z" />
<glyph unicode="." horiz-adv-x="569" d="M170 0v227h227v-227h-227z" />
<glyph unicode="/" horiz-adv-x="681" d="M-37 -35l606 1532h150l-606 -1532h-150z" />
<glyph unicode="0" d="M86 713q0 119 6 202q4 41 11.5 90.5t21.5 102.5q27 109 78 178q49 70 142 118t224 48t224.5 -48t142.5 -118q47 -66 76 -178q29 -113 35 -193q6 -84 6 -202q0 -117 -6 -203q-6 -80 -35 -193q-29 -111 -76 -178q-49 -68 -142.5 -116t-224.5 -48t-224 48.5t-142 115.5 q-51 74 -78 178q-14 53 -21.5 102.5t-11.5 90.5q-6 86 -6 203zM270 646q0 -30 2 -52l9 -125q4 -41 10 -72.5t16 -58.5q14 -39 37 -78t54.5 -69.5t73.5 -48t97 -13.5q55 -4 97.5 13.5t74 48t53 69.5t35.5 78q10 27 16.5 58.5t10.5 72.5t6 71.5t4 53.5t2 52.5v68.5v66.5 t-2 52.5t-4 54.5t-6 69.5q-10 82 -27 132q-14 39 -35.5 77.5t-53 69.5t-73.5 47t-98 14q-55 2 -97 -14t-73.5 -47t-54 -70t-37.5 -77q-10 -27 -16 -59t-10 -73l-9 -124q-2 -23 -2 -52.5v-66.5v-69z" />
<glyph unicode="1" d="M178 1040v140q369 0 418 272h133v-1452h-174v1040h-377z" />
<glyph unicode="2" d="M49 0q10 123 44 217t95 164q63 70 119 113q53 41 150 100q209 129 288 215q82 88 82 227q0 57 -21.5 106.5t-59 83.5t-89 53t-110.5 19q-141 0 -215 -108q-72 -109 -68 -252h-174q-10 227 115 369q127 145 352 145q199 0 326 -111q129 -111 129 -307q0 -172 -92 -282 q-47 -55 -111 -109.5t-150 -105.5l-75 -45q-29 -16 -50.5 -28.5t-31.5 -21.5l-68 -45q-45 -31 -66.5 -53t-50.5 -55q-29 -31 -43 -65t-22 -70h745v-154h-948z" />
<glyph unicode="3" d="M70 449h174q4 -147 83 -233.5t226 -86.5q135 0 223 76q92 76 92 205q0 131 -87 204.5t-222 73.5q-55 0 -104 -6v147q14 -2 32.5 -2h42.5q117 0 197 62.5t80 175.5q0 111 -70.5 172t-187.5 61q-135 0 -204 -89t-71 -226h-174q8 215 123 342t326 127q98 0 180 -24.5 t140.5 -73.5t90 -122t31.5 -169q0 -92 -57 -170t-143 -119v-4q129 -29 195.5 -123t66.5 -229q0 -209 -144 -326q-141 -117 -356 -117q-111 0 -202 33t-153.5 93.5t-96 148.5t-31.5 199z" />
<glyph unicode="4" d="M57 340v168l662 944h139v-958h197v-154h-197v-340h-164v340h-637zM207 494h487v710h-4z" />
<glyph unicode="5" d="M72 391h174q8 -115 92 -188.5t213 -73.5q66 0 122 22.5t97 66.5t64.5 107.5t23.5 147.5q0 74 -23.5 134.5t-66.5 103.5t-103.5 67.5t-134.5 24.5q-158 0 -270 -137l-149 8l135 753h717v-153h-586l-78 -418l4 -4q92 104 270 104q203 0 336 -129t133 -368q0 -199 -135 -342 q-133 -141 -372 -142q-197 0 -328 113q-133 115 -135 303z" />
<glyph unicode="6" d="M78 674q0 160 26.5 292t83.5 244q59 117 167 179.5t257 62.5q180 0 288 -96t122 -275h-174q-12 100 -75.5 158.5t-168.5 58.5q-330 0 -352 -550l4 -5q117 190 362 191q203 0 324 -133t121 -338q0 -80 -24.5 -166t-82 -157.5t-149.5 -118t-229 -46.5q-500 0 -500 699z M285 453q0 -70 20.5 -129.5t59 -102.5t95 -67.5t126.5 -24.5q68 0 122 24.5t92 68.5t58.5 102.5t20.5 126.5q0 143 -75 236t-218 93q-72 0 -127.5 -24.5t-94 -68.5t-59 -104.5t-20.5 -129.5z" />
<glyph unicode="7" d="M102 1264v163h940v-149q-221 -219 -378 -580q-156 -358 -179 -698h-194q25 354 178 680q154 332 395 584h-762z" />
<glyph unicode="8" d="M82 418q0 129 65.5 224t188.5 138q-92 37 -147.5 120t-55.5 181q0 172 125 271q125 100 301 100q221 0 330 -109q111 -109 110 -262q0 -98 -54 -179t-146 -122q258 -84 258 -362q0 -205 -137 -324q-133 -119 -345 -119q-219 0 -356 113t-137 330zM266 410q0 -129 86 -205 t223 -76q63 0 119 21.5t94.5 58.5t61 89t22.5 114q0 117 -88 196q-86 80 -211 80q-129 0 -219 -78q-88 -75 -88 -200zM317 1075q0 -117 71 -175t187 -58q106 0 173 61.5t67 171.5q0 106 -66.5 164.5t-177.5 58.5t-182.5 -59.5t-71.5 -163.5z" />
<glyph unicode="9" d="M70 979q0 209 133 342q131 131 344 131q498 0 497 -694q0 -782 -503 -783q-190 0 -307 95.5t-134 279.5h174q8 -104 82 -162.5t185 -58.5q313 0 327 561l-4 4q-49 -92 -139 -146t-197 -54q-217 0 -338 133t-120 352zM254 954q0 -125 82 -215q82 -92 205 -92q131 0 215 92 q82 95 82 228q0 70 -20.5 131t-59.5 105t-94.5 69.5t-124.5 25.5q-74 0 -127.5 -26.5t-88 -72.5t-52 -108.5t-17.5 -136.5z" />
<glyph unicode=":" horiz-adv-x="569" d="M170 0v227h227v-227h-227zM170 831v228h227v-228h-227z" />
<glyph unicode=";" horiz-adv-x="569" d="M170 0v227h227v-207q0 -119 -54 -203.5t-171 -117.5v102q63 20 93 81t26 118h-121zM170 831v228h227v-228h-227z" />
<glyph unicode="&#x3c;" horiz-adv-x="1228" d="M94 455v127l1041 471v-140l-871 -395l871 -395v-139z" />
<glyph unicode="=" horiz-adv-x="1228" d="M98 242v139h1032v-139h-1032zM98 655v140h1032v-140h-1032z" />
<glyph unicode="&#x3e;" horiz-adv-x="1228" d="M94 -16v139l871 395l-871 395v140l1041 -471v-127z" />
<glyph unicode="?" d="M121 1006q-4 217 121 352q127 139 338 139q190 0 311 -111q121 -109 121 -299q0 -113 -45 -189.5t-131 -158.5q-33 -29 -54.5 -51t-36.5 -37q-12 -14 -27.5 -37.5t-28.5 -51t-22.5 -60.5t-9.5 -66v-80h-174v97q0 49 13.5 95t25.5 73q6 14 17.5 31.5t29.5 37.5l45 51 l54 54q94 94 123 145q43 74 36 164q-8 113 -72.5 176t-174.5 63q-141 0 -214 -94t-71 -243h-174zM455 0v227h227v-227h-227z" />
<glyph unicode="@" horiz-adv-x="1638" d="M86 737q0 315 223 537q223 223 537 223q287 0 491 -180q205 -180 205 -451q0 -129 -47 -242.5t-121 -189.5q-72 -74 -154.5 -118t-156.5 -44q-55 0 -92 34t-39 100h-6q-117 -137 -254 -138q-129 0 -211 92q-82 94 -82 232q0 227 137 403q137 178 344 179q166 0 230 -168 l47 129h129l-172 -582q-23 -80 -23 -104q0 -63 49 -64q92 0 189 154q94 156 94 317q0 233 -166 381q-164 147 -389 147q-260 0 -442 -194q-180 -193 -181 -463q0 -274 187 -461q188 -188 446 -188q74 0 145.5 17.5t138 50t124 78.5t100.5 102h129q-49 -84 -118.5 -150.5 t-152.5 -114t-177.5 -72t-192.5 -24.5q-324 0 -547 223q-221 223 -221 549zM532 606q0 -86 50.5 -142t126.5 -56q125 0 221 147q96 152 96 289q0 74 -51 131q-54 59 -115 59q-137 0 -231 -141q-96 -139 -97 -287z" />
<glyph unicode="A" horiz-adv-x="1327" d="M-14 0l571 1462h215l571 -1462h-215l-159 440h-619l-164 -440h-200zM412 604h495l-243 682h-5z" />
<glyph unicode="B" horiz-adv-x="1402" d="M160 0v1462h530q297 0 387 -53q172 -102 172 -305q0 -117 -56 -202t-161 -126v-4q135 -27 207 -121t72 -231q0 -172 -119 -297q-121 -123 -326 -123h-706zM354 164h488q125 0 199.5 69.5t74.5 192.5q0 244 -317 244h-445v-506zM354 834h389q166 0 239 58t73 175 q0 147 -94 193q-47 23 -96.5 30.5t-121.5 7.5h-389v-464z" />
<glyph unicode="C" horiz-adv-x="1478" d="M88 727q0 332 182 551q184 219 510 219q240 0 404 -125q164 -123 198 -350h-194q-31 154 -140.5 232.5t-269.5 78.5q-246 0 -370 -172q-125 -168 -125 -420q0 -268 123 -440q125 -172 374 -172q92 0 168 30.5t129 86t86 133.5t39 172h195q-29 -279 -193 -432.5 t-440 -153.5q-326 0 -502 213q-174 211 -174 549z" />
<glyph unicode="D" horiz-adv-x="1441" d="M160 0v1462h502q344 0 523 -173t179 -523q0 -766 -702 -766h-502zM354 164h324q53 0 103 7t126 40t129 92q53 57 93 170t40 266q0 274 -114.5 416.5t-372.5 142.5h-328v-1134z" />
<glyph unicode="E" horiz-adv-x="1251" d="M160 0v1462h1009v-164h-815v-464h760v-164h-760v-506h822v-164h-1016z" />
<glyph unicode="F" horiz-adv-x="1175" d="M160 0v1462h960v-164h-766v-464h672v-164h-672v-670h-194z" />
<glyph unicode="G" horiz-adv-x="1554" d="M88 702q0 336 182 566q180 229 514 229q125 0 232.5 -29.5t188.5 -90t135.5 -151.5t72.5 -214h-194q-29 160 -147 240.5t-288 80.5q-133 0 -227 -53t-155.5 -140t-90 -199t-28.5 -228q0 -244 133 -414t368 -170q221 0 351 135q119 128 119 315q0 13 -1 27h-467v164h641 v-770h-122l-52 182q-80 -111 -205.5 -164t-263.5 -53q-313 0 -505 217q-190 217 -191 520z" />
<glyph unicode="H" horiz-adv-x="1478" d="M160 0v1462h194v-628h770v628h195v-1462h-195v670h-770v-670h-194z" />
<glyph unicode="I" horiz-adv-x="530" d="M168 0v1462h194v-1462h-194z" />
<glyph unicode="J" horiz-adv-x="1062" d="M45 391v90h195v-61q0 -141 51 -216t184 -75q129 0 181.5 67.5t52.5 196.5v1069h194v-1097q0 -170 -102 -285t-330 -115q-205 0 -315.5 110.5t-110.5 315.5z" />
<glyph unicode="K" horiz-adv-x="1366" d="M160 0v1462h194v-729l742 729h252l-617 -590l641 -872h-246l-528 739l-244 -227v-512h-194z" />
<glyph unicode="L" d="M160 0v1462h194v-1298h774v-164h-968z" />
<glyph unicode="M" horiz-adv-x="1783" d="M164 0v1462h266l461 -1229l463 1229h266v-1462h-184v1217h-4l-457 -1217h-166l-457 1217h-4v-1217h-184z" />
<glyph unicode="N" horiz-adv-x="1478" d="M158 0v1462h207l770 -1186h4v1186h184v-1462h-213l-764 1174h-4v-1174h-184z" />
<glyph unicode="O" horiz-adv-x="1556" d="M78 731q0 205 75.5 375t237.5 280q162 111 387 111q221 0 385 -111q162 -111 240 -280q76 -166 76 -375q0 -205 -75 -375t-241 -280q-164 -111 -385 -111q-225 0 -387 111q-159 108 -237 280q-76 166 -76 375zM272 731q0 -156 49.5 -288t167.5 -224q115 -90 289 -90 q168 0 287 90q119 92 168 223q37 100 47 214q4 40 4 79q0 73 -12 143q-18 108 -69.5 204t-137.5 159q-59 45 -130 68.5t-157 23.5t-157.5 -24.5t-130 -66.5t-101 -99t-67.5 -125q-49 -133 -50 -287z" />
<glyph unicode="P" horiz-adv-x="1327" d="M160 0v1462h641q217 0 332.5 -113.5t115.5 -318.5t-115.5 -318.5t-332.5 -113.5h-447v-598h-194zM354 762h381q319 0 320 268q0 268 -320 268h-381v-536z" />
<glyph unicode="Q" horiz-adv-x="1556" d="M78 731q0 209 76 375q78 172 237 280q162 111 387 111q221 0 385 -111q166 -111 241 -280.5t75 -374.5q0 -367 -222 -581l193 -154l-98 -123l-224 180q-145 -88 -350 -88q-225 0 -387 111q-160 109 -237 280q-76 166 -76 375zM272 731q0 -158 50 -289q53 -135 167 -223 q117 -90 289 -90q104 0 203 41l-162 129l103 119l194 -156q168 166 168 469q0 156 -50 287t-169 223q-117 92 -287 92t-289 -92q-117 -92 -167 -223t-50 -287z" />
<glyph unicode="R" horiz-adv-x="1402" d="M160 0v1462h688q102 0 184 -26.5t140.5 -76.5t89 -121t30.5 -159q0 -137 -62.5 -236.5t-191.5 -133.5v-4q117 -23 162 -98t57 -204q2 -8 2.5 -33.5t4.5 -70.5l10 -119q2 -16 8 -39.5t15.5 -49t20.5 -49.5t25 -42h-217q-25 29 -30 82q-4 29 -6.5 65.5t-4.5 74.5t-5 74 t-7 64q-10 63 -21.5 103.5t-37.5 81.5q-47 80 -185 80h-475v-625h-194zM354 788h406q160 0 249 56.5t89 204.5q0 113 -64.5 181t-195.5 68h-484v-510z" />
<glyph unicode="S" horiz-adv-x="1327" d="M76 481h184q0 -176 123 -264q121 -88 303 -88q154 0 262 61q109 61 109 205q0 53 -23.5 94t-60.5 70q-16 12 -41 25.5t-53 23.5q-31 12 -57.5 20.5t-54.5 15.5t-59.5 13.5t-68.5 14.5l-49 10q-84 16 -140.5 32.5t-123.5 47.5q-98 47 -149.5 115.5t-55.5 191.5v5 q0 205 155 312q156 111 375 111q117 0 214.5 -28.5t168 -87t111.5 -144.5t45 -203h-184q-35 299 -363 299q-70 0 -130 -14t-104 -45t-69 -78t-25 -113q0 -57 32 -99t87 -66q33 -14 57.5 -24.5t67.5 -21.5l70 -16l155 -33q102 -23 173 -50.5t145 -72.5q72 -47 110.5 -120.5 t38.5 -178.5q0 -147 -90 -249q-92 -104 -215 -145.5t-266 -41.5q-264 0 -434 131q-170 133 -170 385z" />
<glyph unicode="T" horiz-adv-x="1175" d="M4 1298v164h1170v-164h-488v-1298h-194v1298h-488z" />
<glyph unicode="U" horiz-adv-x="1478" d="M152 528v934h194v-934q0 -193 104.5 -296t301.5 -103q186 0 283.5 103.5t97.5 295.5v934h194v-934q0 -276 -148.5 -419.5t-426.5 -143.5q-291 0 -445.5 139.5t-154.5 423.5z" />
<glyph unicode="V" horiz-adv-x="1251" d="M-2 1462h211l418 -1267h4l422 1267h202l-520 -1462h-221z" />
<glyph unicode="W" horiz-adv-x="1896" d="M25 1462h198l287 -1216h4l328 1216h211l323 -1216h4l297 1216h195l-391 -1462h-203l-334 1229h-4l-338 -1229h-203z" />
<glyph unicode="X" horiz-adv-x="1251" d="M-2 0l510 752l-481 710h233l365 -571l381 571h217l-484 -710l514 -752h-237l-393 604l-406 -604h-219z" />
<glyph unicode="Y" horiz-adv-x="1327" d="M4 1462h232l438 -696l428 696h221l-559 -864v-598h-195v598z" />
<glyph unicode="Z" horiz-adv-x="1251" d="M45 0v164l909 1134h-839v164h1069v-164l-908 -1134h932v-164h-1163z" />
<glyph unicode="[" horiz-adv-x="530" d="M147 -406v1903h383v-139h-219v-1624h219v-140h-383z" />
<glyph unicode="\" horiz-adv-x="681" d="M-37 1497h150l606 -1532h-150z" />
<glyph unicode="]" horiz-adv-x="530" d="M0 -266h219v1624h-219v139h383v-1903h-383v140z" />
<glyph unicode="^" horiz-adv-x="1228" d="M102 541l447 886h131l446 -886h-143l-371 737l-364 -737h-146z" />
<glyph unicode="_" horiz-adv-x="1024" d="M0 -154h1024v-102h-1024v102z" />
<glyph unicode="`" horiz-adv-x="454" d="M-47 1497h223l176 -293h-131z" />
<glyph unicode="a" horiz-adv-x="1099" d="M74 272q0 172 114 240q57 33 109.5 51.5t134.5 34.5q20 4 47 8t62 8t60.5 8.5t41.5 8.5q29 6 56.5 15t49 23.5t33 35t6.5 49.5q0 176 -235 176q-254 0 -264 -201h-174q4 92 37.5 158.5t92 110.5t139.5 64.5t179 20.5q397 0 398 -290v-545q0 -72 8 -95.5t47 -23.5 q23 0 53 10v-135q-47 -29 -125 -29q-147 0 -147 164q-139 -164 -373 -164q-156 0 -253 74t-97 223zM258 285q0 -80 58.5 -118t146.5 -38q158 0 239 76q84 78 84 164v178q-33 -23 -77 -35q-23 -6 -55.5 -12t-73.5 -11q-41 -4 -68 -7t-41 -7q-100 -16 -156.5 -59t-56.5 -131z " />
<glyph unicode="b" horiz-adv-x="1214" d="M137 0v1462h174v-547h4q41 86 131.5 127t206.5 41q233 0 361 -159q127 -162 127 -398q0 -238 -127 -395q-125 -156 -357 -156q-96 0 -192 40t-150 126h-4v-141h-174zM305 530q0 -174 82 -286q84 -115 252 -115q164 0 242 117q75 119 75 293q0 162 -84 276 q-84 115 -243 115q-164 0 -244 -117t-80 -283z" />
<glyph unicode="c" horiz-adv-x="1099" d="M74 516q0 250 129 408q128 159 367 159h3q190 0 314.5 -92t142.5 -272h-180q-20 100 -88 155.5t-174 55.5q-94 0 -157.5 -34t-101.5 -91t-54.5 -132t-16.5 -157q0 -162 76 -274q76 -113 233 -113q125 0 200 67.5t91 190.5h178q-29 -199 -148.5 -305.5t-318.5 -106.5 q-238 0 -366 148q-129 150 -129 393z" />
<glyph unicode="d" horiz-adv-x="1214" d="M74 532q0 238 125 394q126 157 355 157h3q96 0 192.5 -39.5t149.5 -125.5h4v544h174v-1462h-174v143h-4q-41 -86 -131 -127t-207 -41q-236 0 -360 160q-127 162 -127 397zM258 520q0 -162 84 -276q84 -115 244 -115q164 0 243 117q80 117 80 282q0 172 -84 287t-250 115 t-241 -119q-76 -115 -76 -291z" />
<glyph unicode="e" horiz-adv-x="1099" d="M74 532v23q0 105 32 195q36 98 107 176q140 157 355 157h3q139 0 233.5 -58t151 -148.5t78.5 -196.5q18 -90 18 -173q0 -15 -1 -30h-793v-13q0 -66 18 -124q20 -64 61.5 -111t104 -73.5t146.5 -26.5q227 0 274 207h172q-35 -174 -153.5 -267.5t-298.5 -93.5 q-123 0 -216.5 40t-158 113t-98 175.5t-35.5 228.5zM258 631h608q-6 127 -92 213t-213 86q-131 0 -213 -86q-82 -88 -90 -213z" />
<glyph unicode="f" horiz-adv-x="606" d="M25 905v154h178v158q0 129 74.5 195.5t218.5 66.5q57 0 112 -17v-151q-41 14 -98 14q-68 0 -100.5 -26.5t-32.5 -92.5v-147h205v-154h-205v-905h-174v905h-178z" />
<glyph unicode="g" horiz-adv-x="1175" d="M74 524q0 100 25.5 192.5t78.5 178.5q55 86 154.5 137t230.5 51q219 0 316 -176h2v152h163v-969q0 -520 -491 -520q-104 0 -201 29q-47 12 -89 37.5t-73.5 61.5t-52 82t-22.5 101h174q6 -86 88 -129t186 -43q317 0 318 402v69h-4q-41 -92 -132.5 -142t-197.5 -50 q-225 0 -350 153q-123 154 -123 383zM258 545q0 -104 25 -191q27 -86 95 -149.5t179 -63.5q160 0 238 121q77 119 77 285q0 165 -75 272q-74 111 -226 111q-80 0 -138 -29t-97 -81t-58.5 -122.5t-19.5 -152.5z" />
<glyph unicode="h" d="M131 0v1462h174v-559h4q20 45 55 79t80 56.5t95.5 33.5t103.5 11q197 0 281 -101t84 -286v-696h-174v717q0 98 -58.5 155.5t-157.5 57.5q-154 0 -233.5 -91t-79.5 -241v-598h-174z" />
<glyph unicode="i" horiz-adv-x="454" d="M141 0v1059h174v-1059h-174zM141 1249v213h174v-213h-174z" />
<glyph unicode="j" horiz-adv-x="454" d="M-29 -248q12 -2 30.5 -3t41.5 -1q57 0 77.5 32t20.5 114v1165h174v-1194q0 -137 -67.5 -204t-186.5 -67q-25 0 -47 2.5t-43 6.5v149zM141 1249v213h174v-213h-174z" />
<glyph unicode="k" horiz-adv-x="1062" d="M141 0v1462h174v-866l484 463h233l-420 -385l451 -674h-221l-363 553l-164 -152v-401h-174z" />
<glyph unicode="l" horiz-adv-x="454" d="M141 0v1462h174v-1462h-174z" />
<glyph unicode="m" horiz-adv-x="1746" d="M131 0v1059h164v-156h4q119 180 342 180q104 0 182 -44t109 -136q53 86 140 133t192 47q352 0 352 -307v-776h-174v694q0 113 -43 174.5t-162 61.5q-125 0 -200.5 -74t-75.5 -197v-659h-175v694q0 113 -44 174.5t-154 61.5q-78 0 -131.5 -32t-87 -75t-49 -89t-15.5 -75 v-659h-174z" />
<glyph unicode="n" d="M131 0v1059h164v-168h4q105 192 342 192h2q197 0 281 -101t84 -286v-696h-174v717q0 98 -58.5 155.5t-157.5 57.5q-154 0 -233.5 -91t-79.5 -241v-598h-174z" />
<glyph unicode="o" horiz-adv-x="1175" d="M74 528q0 242 135 400q134 155 376 155h3q244 0 379 -155q135 -158 135 -400t-135 -397q-135 -156 -379 -156t-379 156q-135 155 -135 397zM258 528q0 -186 94 -292t236 -107q141 0 235 107q94 106 95 292q0 186 -95 293q-96 109 -235 109q-140 0 -236 -109 q-94 -106 -94 -293z" />
<glyph unicode="p" horiz-adv-x="1214" d="M137 -406v1465h174v-144h4q41 86 131.5 127t206.5 41q233 0 361 -159q127 -162 127 -398q0 -238 -127 -395q-125 -156 -357 -156q-96 0 -192 40t-150 126h-4v-547h-174zM305 530q0 -174 82 -286q84 -115 252 -115q164 0 242 117q75 119 75 293q0 162 -84 276 q-84 115 -243 115q-164 0 -244 -117t-80 -283z" />
<glyph unicode="q" horiz-adv-x="1214" d="M74 532q0 238 125 394q126 157 355 157h3q96 0 192.5 -39.5t149.5 -125.5h4v141h174v-1465h-174v549h-4q-41 -86 -131 -127t-207 -41q-236 0 -360 160q-127 162 -127 397zM258 520q0 -162 84 -276q84 -115 244 -115q164 0 243 117q80 117 80 282q0 172 -84 287t-250 115 t-241 -119q-76 -115 -76 -291z" />
<glyph unicode="r" horiz-adv-x="681" d="M125 0v1059h164v-223h4q63 131 155 191q87 56 217 56h17v-184q-203 0 -293 -108.5t-90 -319.5v-471h-174z" />
<glyph unicode="s" horiz-adv-x="1024" d="M63 334h175q4 -109 83.5 -157t200.5 -48q256 0 256 158q0 45 -23.5 74.5t-64.5 50.5q-25 10 -41 16t-51 16l-51 15q-8 2 -24.5 5t-33 7t-33 7t-24.5 5q-76 16 -128 34t-107 52q-111 68 -111 213q0 147 119 224t272 77h4q416 0 434 -331h-174q-8 94 -77.5 136t-167.5 42 q-94 0 -160 -31t-66 -104q0 -41 23.5 -65.5t60.5 -47.5q20 -12 58.5 -22.5t62.5 -16.5q12 -4 31.5 -8t40 -9t39 -9.5t30.5 -6.5q78 -18 129.5 -35.5t106.5 -52.5q111 -70 111 -213q0 -94 -40 -158.5t-104.5 -103.5t-145.5 -55.5t-161 -16.5q-98 0 -179 21.5t-139.5 65.5 t-92 112t-38.5 160z" />
<glyph unicode="t" horiz-adv-x="645" d="M18 905v154h181v317h174v-317h211v-154h-211v-657q0 -31 5 -49.5t19.5 -28.5t40 -13t66.5 -3h80v-154h-133q-143 0 -197 45q-55 45 -55 186v674h-181z" />
<glyph unicode="u" d="M131 362v697h174v-717q0 -98 58.5 -155.5t156.5 -57.5q154 0 234 91t80 241v598h174v-1059h-164v168h-4q-106 -193 -344 -193q-197 0 -281 101.5t-84 285.5z" />
<glyph unicode="v" horiz-adv-x="1024" d="M29 1059h194l297 -883h4l289 883h182l-387 -1059h-186z" />
<glyph unicode="w" horiz-adv-x="1552" d="M35 1059h192l240 -866h4l213 866h190l222 -866h4l237 866h181l-338 -1059h-185l-215 842h-4l-213 -842h-188z" />
<glyph unicode="x" horiz-adv-x="1060" d="M18 0l398 557l-369 502h223l254 -371l264 371h209l-364 -488l409 -571h-223l-295 438l-295 -438h-211z" />
<glyph unicode="y" horiz-adv-x="1024" d="M16 1059h197l309 -866h4l297 866h185l-461 -1200q-31 -80 -61.5 -133.5t-65.5 -87t-79 -48t-101 -14.5q-72 0 -121 18v160q73 -24 100 -24h2q90 0 144 96l71 180z" />
<glyph unicode="z" horiz-adv-x="983" d="M45 0v133l639 772h-598v154h823v-119l-647 -786h676v-154h-893z" />
<glyph unicode="{" horiz-adv-x="681" d="M98 475v139q33 0 65 18.5t54.5 50.5t36.5 76t14 97v373q0 123 68 194q70 74 153 74h144v-123h-103q-98 0 -98 -176v-375q0 -125 -61 -192q-57 -66 -117 -82v-6q18 -2 48 -15.5t59.5 -45t50 -84t20.5 -130.5v-374q0 -176 98 -177h103v-123h-144q-84 0 -153 74 q-68 70 -68 195v373q0 106 -51 172.5t-119 66.5z" />
<glyph unicode="|" horiz-adv-x="454" d="M158 -438v2048h139v-2048h-139z" />
<glyph unicode="}" horiz-adv-x="681" d="M49 -283h103q98 0 98 177v374q0 123 59 193q61 68 119 82v6q-18 2 -48 15.5t-59.5 45t-50 83.5t-20.5 130v371q0 180 -98 180h-103v123h144q80 0 151 -74q70 -74 70 -194v-373q0 -111 51 -176.5t119 -65.5v-139q-35 0 -66 -17.5t-53.5 -50t-36.5 -76.5t-14 -95v-373 q0 -121 -70 -195q-72 -74 -151 -74h-144v123z" />
<glyph unicode="~" horiz-adv-x="1228" d="M141 469q92 176 256 176q78 0 228 -65q10 -4 27.5 -13.5t41.5 -21.5q51 -27 83 -37t57 -10q37 0 75 28q18 14 30.5 25.5t23 26t21.5 32t30 43.5l73 -102q-41 -55 -67 -86q-27 -31 -78 -60.5t-111 -29.5q-86 0 -208 67q-141 80 -236 80q-102 0 -172 -155z" />
<glyph unicode="&#xa1;" horiz-adv-x="530" d="M152 831v228h227v-228h-227zM168 45l51 637h92l51 -637v-451h-194v451z" />
<glyph unicode="&#xa2;" d="M94 516q0 231 121 393q119 158 342 174v195h80v-195q174 -4 284.5 -94t131.5 -270h-179q-20 98 -79.5 153.5t-157.5 57.5v-801q207 20 248 258h174q-16 -166 -129 -289q-115 -123 -293 -123v-213h-80v213q-221 10 -342 158q-121 152 -121 383zM279 516q0 -154 69 -266 q72 -113 209 -121v801q-74 -10 -127 -44t-87 -88.5t-49 -126t-15 -155.5z" />
<glyph unicode="&#xa3;" d="M96 113q98 66 162 161t64 205q0 82 -52 191h-174v92h119q-96 162 -96 319q0 186 135 301q139 115 332 115q233 0 360 -134t123 -394h-174q-10 375 -299 374q-121 0 -209 -77q-84 -78 -84 -191q0 -47 10.5 -95t22.5 -73l39 -76q12 -25 21.5 -42t13.5 -27h325v-92h-280 q41 -78 41 -154q0 -86 -39 -162q-37 -76 -80 -118q-20 -20 -50 -46t-69 -59l4 -4q137 59 215 59q39 0 87 -7t108 -23q63 -16 106 -26.5t66 -10.5q88 0 182 76l88 -136q-109 -94 -299 -94q-74 0 -203 41q-141 43 -215 43q-96 0 -204 -72z" />
<glyph unicode="&#xa4;" d="M51 297l113 119q-106 127 -107 299q0 193 111 303l-117 119l101 100l114 -115q125 104 309 105q172 0 293 -103l117 115l102 -104l-112 -113q106 -115 106 -303q0 -180 -106 -307l112 -115l-96 -96l-114 118q-119 -113 -304 -112q-188 0 -311 110l-112 -118zM231 715 q0 -152 99 -252q102 -102 243 -103q141 0 238 105q96 106 96 254q0 143 -96 250q-97 104 -236 104q-145 0 -245 -104q-98 -102 -99 -254z" />
<glyph unicode="&#xa5;" d="M0 1462h223l357 -723l346 723h213l-365 -706h191v-123h-258l-37 -68v-86h295v-123h-295v-356h-195v356h-289v123h289v86l-37 68h-252v123h189z" />
<glyph unicode="&#xa6;" horiz-adv-x="454" d="M158 -182v512h139v-512h-139zM158 842v512h139v-512h-139z" />
<glyph unicode="&#xa7;" d="M72 666q0 94 63 176t156 106q-94 96 -94 217q0 154 112 242q115 90 266 90q174 0 273.5 -96t103.5 -283h-174q-2 98 -57 161.5t-150 63.5q-86 0 -140 -45t-54 -131t86 -149q25 -18 41 -30.5t49 -31.5l49 -28q8 -6 24.5 -14.5t34 -17.5t33 -17.5t23.5 -12.5 q80 -41 143.5 -83t106.5 -90t66.5 -102t23.5 -122q0 -98 -59.5 -182t-153.5 -119q121 -90 121 -246q0 -147 -109 -237t-274 -91q-180 0 -290 103.5t-122 284.5h174q2 -104 65.5 -169t168.5 -65q41 0 77.5 11.5t65.5 34t46 53t17 71.5q0 47 -24.5 84t-59.5 70 q-18 18 -58 42.5t-64 39.5q-10 8 -30 18t-46 25l-74 41q-78 43 -133 76.5t-111 86.5q-113 104 -112 265zM240 674q0 -45 15 -82t58 -72l62 -49l80 -47q80 -47 152.5 -88t133.5 -82q147 61 148 190q0 41 -18.5 77t-61.5 71q-23 16 -38 28.5t-26 18.5q-10 8 -27.5 19.5 t-45.5 27.5q-125 76 -196 120t-87 54q-61 -20 -105 -72.5t-44 -113.5z" />
<glyph unicode="&#xa8;" horiz-adv-x="454" d="M-57 1212v213h184v-213h-184zM328 1212v213h184v-213h-184z" />
<glyph unicode="&#xa9;" horiz-adv-x="1638" d="M49 735q0 322 227 541q227 221 545 221q317 0 543 -221q225 -219 225 -541q0 -324 -225 -549q-225 -221 -543 -221q-324 0 -547 221q-225 221 -225 549zM188 735q0 -281 183 -469q182 -188 450 -188q264 0 447 188q182 188 182 469q0 272 -182 461q-182 188 -447 188 q-268 0 -450 -188q-183 -189 -183 -461zM391 731q0 207 121 338q119 129 328 129q152 0 257 -81t128 -230h-129q-16 88 -85 143t-169 55q-147 0 -229.5 -98t-82.5 -252q0 -152 86 -256t230 -104q100 0 167.5 58.5t82.5 150.5h131q-33 -147 -136.5 -234.5t-244.5 -87.5 q-205 0 -330 131t-125 338z" />
<glyph unicode="&#xaa;" horiz-adv-x="774" d="M51 961q0 178 246 202q147 14 190 31q45 14 45 55q0 61 -41.5 81t-115.5 20q-164 0 -170 -115h-123q6 111 89 164t212 53q266 0 266 -178v-328q0 -66 29 -65q16 0 26.5 1t18.5 3v-90q-45 -16 -88 -17q-98 0 -105 94q-88 -94 -239 -94q-104 0 -172 45t-68 138zM190 965 q0 -84 127 -84q104 0 156.5 43t52.5 98v96q-33 -20 -204 -47q-63 -10 -97.5 -33.5t-34.5 -72.5z" />
<glyph unicode="&#xab;" horiz-adv-x="948" d="M102 479v180l312 246v-176l-205 -160l205 -159v-177zM504 479v180l311 246v-176l-205 -160l205 -159v-177z" />
<glyph unicode="&#xac;" horiz-adv-x="1228" d="M98 655v140h1032v-572h-139v432h-893z" />
<glyph unicode="&#xad;" horiz-adv-x="796" d="M102 487v164h592v-164h-592z" />
<glyph unicode="&#xae;" horiz-adv-x="1638" d="M49 735q0 322 227 541q227 221 545 221q317 0 543 -221q225 -219 225 -541q0 -324 -225 -549q-225 -221 -543 -221q-324 0 -547 221q-225 221 -225 549zM188 735q0 -281 183 -469q182 -188 450 -188q264 0 447 188q182 188 182 469q0 272 -182 461q-182 188 -447 188 q-268 0 -450 -188q-183 -189 -183 -461zM522 285v895h346q313 0 314 -256q0 -219 -236 -244l256 -395h-149l-244 385h-147v-385h-140zM662 782h145q45 0 72.5 1t62.5 10q47 10 73.5 41.5t26.5 95.5q0 137 -196 137h-184v-285z" />
<glyph unicode="&#xaf;" horiz-adv-x="454" d="M-121 1270v112h699v-112h-699z" />
<glyph unicode="&#xb0;" horiz-adv-x="819" d="M115 1157q0 123 86 209t209 86t208 -86q86 -86 87 -209q0 -123 -87 -209q-86 -86 -208 -86q-123 0 -209 86t-86 209zM217 1157q0 -76 53 -135q51 -57 140 -57q88 0 139 57q53 59 53 135t-53 133q-53 59 -139 60q-87 -1 -140 -60q-53 -57 -53 -133z" />
<glyph unicode="&#xb1;" horiz-adv-x="1228" d="M98 0v139h1032v-139h-1032zM98 555v139h447v340h139v-340h446v-139h-446v-342h-139v342h-447z" />
<glyph unicode="&#xb2;" horiz-adv-x="681" d="M29 573q6 139 67 213q66 74 189 144q133 76 186 129q51 51 51 137q0 63 -49 103t-121 40q-86 0 -127 -57t-41 -145h-139q0 141 86 228t227 87q63 0 120 -18.5t96.5 -52t63.5 -81t24 -106.5q0 -109 -76 -182q-37 -37 -70 -60.5t-86 -54.5l-68 -39l-71 -43l-53 -37 q-35 -23 -49.5 -45t-20.5 -47h481v-113h-620z" />
<glyph unicode="&#xb3;" horiz-adv-x="681" d="M8 848h139q2 -86 51.5 -131t137.5 -45q80 0 136 40t56 107q0 80 -55 119t-135 39h-68v102h49q74 0 122 33t48 100q0 59 -44 93t-113 34q-80 0 -122 -49t-42 -127h-139q8 135 88 212t215 77q131 0 214 -61.5t83 -178.5q0 -55 -40 -102t-100 -72v-4q86 -16 132.5 -72.5 t46.5 -136.5q0 -127 -99 -196q-94 -70 -233 -70q-143 0 -235.5 76t-92.5 213z" />
<glyph unicode="&#xb4;" horiz-adv-x="454" d="M102 1204l177 293h223l-269 -293h-131z" />
<glyph unicode="&#xb5;" d="M131 -406v1465h174v-717q0 -98 58.5 -155.5t156.5 -57.5q154 0 234 91t80 241v598h174v-1059h-164v168h-4q-106 -193 -344 -193q-137 0 -187 78h-4v-459h-174z" />
<glyph unicode="&#xb6;" horiz-adv-x="1228" d="M98 1040q0 199 125 310.5t342 111.5h490v-1779h-140v1667h-249v-1667h-140v976q-186 0 -307 109q-121 111 -121 272z" />
<glyph unicode="&#xb7;" horiz-adv-x="569" d="M154 637q0 53 39 92t92 39q51 0 91 -40t40 -91q0 -49 -40 -90t-89 -41q-53 0 -93 39t-40 92z" />
<glyph unicode="&#xb8;" horiz-adv-x="454" d="M10 -391l37 90q68 -27 125 -27q49 0 88 15.5t39 48.5q0 27 -27.5 45t-68.5 18q-31 0 -84 -16l-35 57l125 160h86l-86 -109l4 -4q20 14 68 15q70 0 121 -39t51 -111q0 -94 -78 -137q-76 -45 -176 -45q-84 0 -189 39z" />
<glyph unicode="&#xb9;" horiz-adv-x="681" d="M135 1204v103q242 2 273 145h102v-879h-139v631h-236z" />
<glyph unicode="&#xba;" horiz-adv-x="786" d="M51 1112q0 147 90 244q90 96 252 96t252 -95t90 -245q0 -154 -87 -244t-253 -90q-160 0 -252 92t-92 242zM190 1112q0 -100 50.5 -165.5t154.5 -65.5t152.5 64.5t48.5 164.5q0 68 -15.5 113t-43 73.5t-64.5 41t-80 12.5q-88 0 -145.5 -60.5t-57.5 -177.5z" />
<glyph unicode="&#xbb;" horiz-adv-x="948" d="M133 233v177l205 159l-205 160v176l311 -246v-180zM535 233v177l204 159l-204 160v176l311 -246v-180z" />
<glyph unicode="&#xbc;" horiz-adv-x="1708" d="M74 1204v103q242 0 272 145h103v-879h-140v631h-235zM307 -57l891 1542h131l-891 -1542h-131zM946 197v118l430 564h105v-570h123v-112h-123v-197h-127v197h-408zM1047 309h307v396h-4z" />
<glyph unicode="&#xbd;" horiz-adv-x="1708" d="M74 1204v103q242 0 272 145h103v-879h-140v631h-235zM276 -57l891 1542h131l-890 -1542h-132zM1012 0q6 139 67 213q66 74 189 143q133 76 186 129q51 51 51 138q0 63 -49 103t-121 40q-86 0 -127 -57.5t-41 -145.5h-139q0 141 86 228.5t227 87.5q63 0 120 -18.5 t96.5 -52.5t63.5 -81t24 -106q0 -109 -76 -183q-37 -37 -70 -60.5t-86 -53.5l-67 -39l-72 -43l-53 -37q-35 -23 -49.5 -45.5t-20.5 -46.5h481v-113h-620z" />
<glyph unicode="&#xbe;" horiz-adv-x="1708" d="M100 848h140q2 -86 51 -131t137 -45q80 0 136.5 40t56.5 107q0 80 -55.5 119t-135.5 39h-68v102h50q74 0 122 33t48 100q0 59 -44 93t-114 34q-80 0 -122 -49t-42 -127h-139q8 135 88 212t215 77q131 0 214 -61.5t83 -178.5q0 -55 -40 -102t-99 -72v-4q86 -16 132 -72.5 t46 -136.5q0 -127 -98 -196q-94 -70 -234 -70q-143 0 -235.5 76t-92.5 213zM440 -57l891 1542h131l-891 -1542h-131zM981 197v118l430 564h105v-570h122v-112h-122v-197h-127v197h-408zM1083 301h308v395h-5z" />
<glyph unicode="&#xbf;" d="M139 -20q0 113 45 189.5t131 158.5q33 29 54.5 51t36.5 37q12 14 27.5 37.5t28.5 51t22.5 60.5t9.5 66v63h174v-80q0 -49 -13.5 -95t-25.5 -73q-12 -25 -49 -69q-16 -23 -28.5 -36t-16.5 -17l-52 -52q-94 -94 -123 -145q-43 -74 -36 -164q8 -113 72.5 -176t174.5 -63 q141 0 214 94t71 243h174q2 -215 -123 -352q-127 -139 -336 -139q-195 0 -313 111q-119 106 -119 299zM463 831v228h227v-228h-227z" />
<glyph unicode="&#xc0;" horiz-adv-x="1327" d="M-14 0l571 1462h215l571 -1462h-215l-159 440h-619l-164 -440h-200zM389 1860h223l176 -293h-131zM412 604h495l-243 682h-5z" />
<glyph unicode="&#xc1;" horiz-adv-x="1327" d="M-14 0l571 1462h215l571 -1462h-215l-159 440h-619l-164 -440h-200zM412 604h495l-243 682h-5zM539 1567l176 293h223l-268 -293h-131z" />
<glyph unicode="&#xc2;" horiz-adv-x="1327" d="M-14 0l571 1462h215l571 -1462h-215l-159 440h-619l-164 -440h-200zM356 1567l211 293h191l213 -293h-172l-142 196l-143 -196h-158zM412 604h495l-243 682h-5z" />
<glyph unicode="&#xc3;" horiz-adv-x="1327" d="M-14 0l571 1462h215l571 -1462h-215l-159 440h-619l-164 -440h-200zM317 1585q29 104 78 164.5t137 60.5q53 0 152 -41q98 -41 135 -40q66 0 94 90h107q-12 -92 -64 -164q-57 -63 -161 -64q-35 0 -136 41q-102 39 -137 39q-37 0 -68.5 -24.5t-29.5 -61.5h-107zM412 604 h495l-243 682h-5z" />
<glyph unicode="&#xc4;" horiz-adv-x="1327" d="M-14 0l571 1462h215l571 -1462h-215l-159 440h-619l-164 -440h-200zM379 1575v213h184v-213h-184zM412 604h495l-243 682h-5zM764 1575v213h184v-213h-184z" />
<glyph unicode="&#xc5;" horiz-adv-x="1327" d="M-14 0l571 1462h215l571 -1462h-215l-159 440h-619l-164 -440h-200zM412 604h495l-243 682h-5zM432 1718q0 96 68 164q35 33 76.5 50.5t86 17.5t86.5 -17.5t76 -50.5q70 -68 70 -164t-70 -164q-35 -35 -76.5 -51t-86 -16t-86 16t-76.5 51q-68 68 -68 164zM523 1717.5 q-1 -58.5 42 -99.5q41 -41 98.5 -41t98.5 41q43 41 42 99.5t-42 99.5q-43 41 -98.5 41t-98.5 -41q-41 -41 -42 -99.5z" />
<glyph unicode="&#xc6;" horiz-adv-x="1896" d="M-14 0l739 1462h1096v-164h-719v-464h676v-164h-676v-506h731v-164h-915v426h-504l-209 -426h-219zM489 590h429v708h-84z" />
<glyph unicode="&#xc7;" horiz-adv-x="1478" d="M88 727q0 332 182 551q184 219 510 219q240 0 404 -125q164 -123 198 -350h-194q-31 154 -140.5 232.5t-269.5 78.5q-246 0 -370 -172q-125 -168 -125 -420q0 -268 123 -440q125 -172 374 -172q92 0 168 30.5t129 86t86 133.5t39 172h195q-14 -135 -62.5 -242.5 t-127.5 -183.5t-186.5 -117t-240.5 -41l-59 -76l4 -4q20 14 68 15q70 0 121 -39t51 -111q0 -94 -78 -137q-76 -45 -176 -45q-84 0 -189 39l37 90q68 -27 125 -27q49 0 88 15.5t39 48.5q0 27 -27.5 45t-68.5 18q-31 0 -84 -16l-35 57l100 129q-295 20 -452 232 q-156 207 -156 526z" />
<glyph unicode="&#xc8;" horiz-adv-x="1251" d="M160 0v1462h1009v-164h-815v-464h760v-164h-760v-506h822v-164h-1016zM352 1860h223l177 -293h-131z" />
<glyph unicode="&#xc9;" horiz-adv-x="1251" d="M160 0v1462h1009v-164h-815v-464h760v-164h-760v-506h822v-164h-1016zM502 1567l176 293h223l-268 -293h-131z" />
<glyph unicode="&#xca;" horiz-adv-x="1251" d="M160 0v1462h1009v-164h-815v-464h760v-164h-760v-506h822v-164h-1016zM319 1567l211 293h191l213 -293h-172l-141 196l-144 -196h-158z" />
<glyph unicode="&#xcb;" horiz-adv-x="1251" d="M160 0v1462h1009v-164h-815v-464h760v-164h-760v-506h822v-164h-1016zM342 1575v213h184v-213h-184zM727 1575v213h184v-213h-184z" />
<glyph unicode="&#xcc;" horiz-adv-x="530" d="M-8 1860h223l176 -293h-131zM168 0v1462h194v-1462h-194z" />
<glyph unicode="&#xcd;" horiz-adv-x="530" d="M141 1567l176 293h224l-269 -293h-131zM168 0v1462h194v-1462h-194z" />
<glyph unicode="&#xce;" horiz-adv-x="530" d="M-41 1567l211 293h190l213 -293h-172l-141 196l-143 -196h-158zM168 0v1462h194v-1462h-194z" />
<glyph unicode="&#xcf;" horiz-adv-x="530" d="M-18 1575v213h184v-213h-184zM168 0v1462h194v-1462h-194zM367 1575v213h184v-213h-184z" />
<glyph unicode="&#xd0;" horiz-adv-x="1441" d="M16 694v140h144v628h502q344 0 523 -173t179 -523q0 -766 -702 -766h-502v694h-144zM354 164h324q53 0 103 7t126 40t129 92q53 57 93 170t40 266q0 274 -114.5 416.5t-372.5 142.5h-328v-464h439v-140h-439v-530z" />
<glyph unicode="&#xd1;" horiz-adv-x="1478" d="M158 0v1462h207l770 -1186h4v1186h184v-1462h-213l-764 1174h-4v-1174h-184zM393 1585q29 104 78 164.5t137 60.5q53 0 152 -41q98 -41 135 -40q66 0 94 90h107q-12 -92 -64 -164q-57 -63 -162 -64q-35 0 -135 41q-102 39 -137 39q-37 0 -68.5 -24.5t-29.5 -61.5h-107z " />
<glyph unicode="&#xd2;" horiz-adv-x="1556" d="M78 731q0 205 75.5 375t237.5 280q162 111 387 111q221 0 385 -111q162 -111 240 -280q76 -166 76 -375q0 -205 -75 -375t-241 -280q-164 -111 -385 -111q-225 0 -387 111q-159 108 -237 280q-76 166 -76 375zM272 731q0 -156 49.5 -288t167.5 -224q115 -90 289 -90 q168 0 287 90q119 92 168 223q37 100 47 214t-8.5 222.5t-69.5 204t-137 158.5q-59 45 -130 68.5t-157 23.5t-157.5 -24.5t-130 -66.5t-101 -99t-67.5 -125q-49 -133 -50 -287zM504 1860h223l176 -293h-131z" />
<glyph unicode="&#xd3;" horiz-adv-x="1556" d="M78 731q0 205 75.5 375t237.5 280q162 111 387 111q221 0 385 -111q162 -111 240 -280q76 -166 76 -375q0 -205 -75 -375t-241 -280q-164 -111 -385 -111q-225 0 -387 111q-159 108 -237 280q-76 166 -76 375zM272 731q0 -156 49.5 -288t167.5 -224q115 -90 289 -90 q168 0 287 90q119 92 168 223q37 100 47 214t-8.5 222.5t-69.5 204t-137 158.5q-59 45 -130 68.5t-157 23.5t-157.5 -24.5t-130 -66.5t-101 -99t-67.5 -125q-49 -133 -50 -287zM653 1567l176 293h224l-269 -293h-131z" />
<glyph unicode="&#xd4;" horiz-adv-x="1556" d="M78 731q0 205 75.5 375t237.5 280q162 111 387 111q221 0 385 -111q162 -111 240 -280q76 -166 76 -375q0 -205 -75 -375t-241 -280q-164 -111 -385 -111q-225 0 -387 111q-159 108 -237 280q-76 166 -76 375zM272 731q0 -156 49.5 -288t167.5 -224q115 -90 289 -90 q168 0 287 90q119 92 168 223q37 100 47 214t-8.5 222.5t-69.5 204t-137 158.5q-59 45 -130 68.5t-157 23.5t-157.5 -24.5t-130 -66.5t-101 -99t-67.5 -125q-49 -133 -50 -287zM471 1567l211 293h190l213 -293h-172l-141 196l-143 -196h-158z" />
<glyph unicode="&#xd5;" horiz-adv-x="1556" d="M78 731q0 205 75.5 375t237.5 280q162 111 387 111q221 0 385 -111q162 -111 240 -280q76 -166 76 -375q0 -205 -75 -375t-241 -280q-164 -111 -385 -111q-225 0 -387 111q-159 108 -237 280q-76 166 -76 375zM272 731q0 -156 49.5 -288t167.5 -224q115 -90 289 -90 q168 0 287 90q119 92 168 223q37 100 47 214t-8.5 222.5t-69.5 204t-137 158.5q-59 45 -130 68.5t-157 23.5t-157.5 -24.5t-130 -66.5t-101 -99t-67.5 -125q-49 -133 -50 -287zM432 1585q29 104 78 164.5t137 60.5q53 0 152 -41q98 -41 135 -40q66 0 94 90h107 q-12 -92 -64 -164q-57 -63 -162 -64q-35 0 -135 41q-102 39 -137 39q-37 0 -68.5 -24.5t-29.5 -61.5h-107z" />
<glyph unicode="&#xd6;" horiz-adv-x="1556" d="M78 731q0 205 75.5 375t237.5 280q162 111 387 111q221 0 385 -111q162 -111 240 -280q76 -166 76 -375q0 -205 -75 -375t-241 -280q-164 -111 -385 -111q-225 0 -387 111q-159 108 -237 280q-76 166 -76 375zM272 731q0 -156 49.5 -288t167.5 -224q115 -90 289 -90 q168 0 287 90q119 92 168 223q37 100 47 214t-8.5 222.5t-69.5 204t-137 158.5q-59 45 -130 68.5t-157 23.5t-157.5 -24.5t-130 -66.5t-101 -99t-67.5 -125q-49 -133 -50 -287zM494 1575v213h184v-213h-184zM879 1575v213h184v-213h-184z" />
<glyph unicode="&#xd7;" horiz-adv-x="1228" d="M145 147l373 373l-371 369l99 98l370 -369l369 369l98 -98l-368 -369l370 -373l-98 -98l-371 373l-372 -373z" />
<glyph unicode="&#xd8;" horiz-adv-x="1556" d="M76 20l172 189q-170 213 -170 522q0 209 76 375q78 172 237 280q162 111 387 111q289 0 475 -180l162 178l66 -61l-168 -185q166 -213 166 -518q0 -209 -76 -375q-78 -170 -240 -280q-164 -111 -385 -111q-287 0 -469 176l-166 -182zM272 731q0 -221 103 -383l755 834 q-133 152 -352 151q-170 0 -289 -92q-117 -92 -167 -223t-50 -287zM430 274q129 -145 348 -145q168 0 287 90q119 92 169 224t50 288q0 219 -98 377z" />
<glyph unicode="&#xd9;" horiz-adv-x="1478" d="M152 528v934h194v-934q0 -193 104.5 -296t301.5 -103q186 0 283.5 103.5t97.5 295.5v934h194v-934q0 -276 -148.5 -419.5t-426.5 -143.5q-291 0 -445.5 139.5t-154.5 423.5zM465 1860h223l176 -293h-131z" />
<glyph unicode="&#xda;" horiz-adv-x="1478" d="M152 528v934h194v-934q0 -193 104.5 -296t301.5 -103q186 0 283.5 103.5t97.5 295.5v934h194v-934q0 -276 -148.5 -419.5t-426.5 -143.5q-291 0 -445.5 139.5t-154.5 423.5zM614 1567l177 293h223l-269 -293h-131z" />
<glyph unicode="&#xdb;" horiz-adv-x="1478" d="M152 528v934h194v-934q0 -193 104.5 -296t301.5 -103q186 0 283.5 103.5t97.5 295.5v934h194v-934q0 -276 -148.5 -419.5t-426.5 -143.5q-291 0 -445.5 139.5t-154.5 423.5zM432 1567l211 293h191l213 -293h-173l-141 196l-143 -196h-158z" />
<glyph unicode="&#xdc;" horiz-adv-x="1478" d="M152 528v934h194v-934q0 -193 104.5 -296t301.5 -103q186 0 283.5 103.5t97.5 295.5v934h194v-934q0 -276 -148.5 -419.5t-426.5 -143.5q-291 0 -445.5 139.5t-154.5 423.5zM455 1575v213h184v-213h-184zM840 1575v213h184v-213h-184z" />
<glyph unicode="&#xdd;" horiz-adv-x="1327" d="M4 1462h232l438 -696l428 696h221l-559 -864v-598h-195v598zM539 1567l176 293h223l-268 -293h-131z" />
<glyph unicode="&#xde;" horiz-adv-x="1327" d="M160 0v1462h194v-233h447q217 0 332.5 -112.5t115.5 -321.5q0 -205 -115.5 -317.5t-332.5 -112.5h-447v-365h-194zM354 528h381q319 0 320 267q0 270 -320 270h-381v-537z" />
<glyph unicode="&#xdf;" d="M131 0v1087q0 180 111 295q115 115 295 115q164 0 294 -96q129 -96 130 -262q0 -246 -213 -318v-4q133 -16 204 -121q74 -104 74 -245q0 -213 -131 -345q-131 -131 -342 -131q-16 0 -37.5 2.5t-50.5 6.5v151q20 -6 70 -6q141 0 224 82t83 217q0 186 -92 246 q-92 61 -285 61v139q137 -8 224 48.5t87 189.5q0 49 -17.5 91t-48 73t-71.5 49t-90 18q-119 0 -181.5 -63t-62.5 -223v-1057h-174z" />
<glyph unicode="&#xe0;" horiz-adv-x="1099" d="M74 272q0 172 114 240q57 33 109.5 51.5t134.5 34.5q20 4 47 8t62 8t60.5 8.5t41.5 8.5q29 6 56.5 15t49 23.5t33 35t6.5 49.5q0 176 -235 176q-254 0 -264 -201h-174q4 92 37.5 158.5t92 110.5t139.5 64.5t179 20.5q397 0 398 -290v-545q0 -72 8 -95.5t47 -23.5 q23 0 53 10v-135q-47 -29 -125 -29q-147 0 -147 164q-139 -164 -373 -164q-156 0 -253 74t-97 223zM258 285q0 -80 58.5 -118t146.5 -38q158 0 239 76q84 78 84 164v178q-33 -23 -77 -35q-23 -6 -55.5 -12t-73.5 -11q-41 -4 -68 -7t-41 -7q-100 -16 -156.5 -59t-56.5 -131z M276 1497h224l176 -293h-131z" />
<glyph unicode="&#xe1;" horiz-adv-x="1099" d="M74 272q0 172 114 240q57 33 109.5 51.5t134.5 34.5q20 4 47 8t62 8t60.5 8.5t41.5 8.5q29 6 56.5 15t49 23.5t33 35t6.5 49.5q0 176 -235 176q-254 0 -264 -201h-174q4 92 37.5 158.5t92 110.5t139.5 64.5t179 20.5q397 0 398 -290v-545q0 -72 8 -95.5t47 -23.5 q23 0 53 10v-135q-47 -29 -125 -29q-147 0 -147 164q-139 -164 -373 -164q-156 0 -253 74t-97 223zM258 285q0 -80 58.5 -118t146.5 -38q158 0 239 76q84 78 84 164v178q-33 -23 -77 -35q-23 -6 -55.5 -12t-73.5 -11q-41 -4 -68 -7t-41 -7q-100 -16 -156.5 -59t-56.5 -131z M426 1204l176 293h223l-268 -293h-131z" />
<glyph unicode="&#xe2;" horiz-adv-x="1099" d="M74 272q0 172 114 240q57 33 109.5 51.5t134.5 34.5q20 4 47 8t62 8t60.5 8.5t41.5 8.5q29 6 56.5 15t49 23.5t33 35t6.5 49.5q0 176 -235 176q-254 0 -264 -201h-174q4 92 37.5 158.5t92 110.5t139.5 64.5t179 20.5q397 0 398 -290v-545q0 -72 8 -95.5t47 -23.5 q23 0 53 10v-135q-47 -29 -125 -29q-147 0 -147 164q-139 -164 -373 -164q-156 0 -253 74t-97 223zM244 1204l211 293h190l213 -293h-172l-141 197l-144 -197h-157zM258 285q0 -80 58.5 -118t146.5 -38q158 0 239 76q84 78 84 164v178q-33 -23 -77 -35q-23 -6 -55.5 -12 t-73.5 -11q-41 -4 -68 -7t-41 -7q-100 -16 -156.5 -59t-56.5 -131z" />
<glyph unicode="&#xe3;" horiz-adv-x="1099" d="M74 272q0 172 114 240q57 33 109.5 51.5t134.5 34.5q20 4 47 8t62 8t60.5 8.5t41.5 8.5q29 6 56.5 15t49 23.5t33 35t6.5 49.5q0 176 -235 176q-254 0 -264 -201h-174q4 92 37.5 158.5t92 110.5t139.5 64.5t179 20.5q397 0 398 -290v-545q0 -72 8 -95.5t47 -23.5 q23 0 53 10v-135q-47 -29 -125 -29q-147 0 -147 164q-139 -164 -373 -164q-156 0 -253 74t-97 223zM205 1223q29 104 78 164.5t137 60.5q53 0 151 -41t136 -41q66 0 94 90h106q-12 -92 -63 -164q-57 -63 -162 -63q-35 0 -135 41q-102 39 -137 39q-37 0 -69 -24.5t-30 -61.5 h-106zM258 285q0 -80 58.5 -118t146.5 -38q158 0 239 76q84 78 84 164v178q-33 -23 -77 -35q-23 -6 -55.5 -12t-73.5 -11q-41 -4 -68 -7t-41 -7q-100 -16 -156.5 -59t-56.5 -131z" />
<glyph unicode="&#xe4;" horiz-adv-x="1099" d="M74 272q0 172 114 240q57 33 109.5 51.5t134.5 34.5q20 4 47 8t62 8t60.5 8.5t41.5 8.5q29 6 56.5 15t49 23.5t33 35t6.5 49.5q0 176 -235 176q-254 0 -264 -201h-174q4 92 37.5 158.5t92 110.5t139.5 64.5t179 20.5q397 0 398 -290v-545q0 -72 8 -95.5t47 -23.5 q23 0 53 10v-135q-47 -29 -125 -29q-147 0 -147 164q-139 -164 -373 -164q-156 0 -253 74t-97 223zM258 285q0 -80 58.5 -118t146.5 -38q158 0 239 76q84 78 84 164v178q-33 -23 -77 -35q-23 -6 -55.5 -12t-73.5 -11q-41 -4 -68 -7t-41 -7q-100 -16 -156.5 -59t-56.5 -131z M266 1212v213h185v-213h-185zM651 1212v213h185v-213h-185z" />
<glyph unicode="&#xe5;" horiz-adv-x="1099" d="M74 272q0 172 114 240q57 33 109.5 51.5t134.5 34.5q20 4 47 8t62 8t60.5 8.5t41.5 8.5q29 6 56.5 15t49 23.5t33 35t6.5 49.5q0 176 -235 176q-254 0 -264 -201h-174q4 92 37.5 158.5t92 110.5t139.5 64.5t179 20.5q397 0 398 -290v-545q0 -72 8 -95.5t47 -23.5 q23 0 53 10v-135q-47 -29 -125 -29q-147 0 -147 164q-139 -164 -373 -164q-156 0 -253 74t-97 223zM258 285q0 -80 58.5 -118t146.5 -38q158 0 239 76q84 78 84 164v178q-33 -23 -77 -35q-23 -6 -55.5 -12t-73.5 -11q-41 -4 -68 -7t-41 -7q-100 -16 -156.5 -59t-56.5 -131z M319 1355q0 44 16.5 86t51.5 77q68 70 164 69q96 0 164 -69q33 -35 50 -77t17 -86t-17 -86t-50 -77q-68 -68 -164 -68t-164 68q-35 35 -51.5 77t-16.5 86zM410 1355.5q0 -57.5 41 -98.5q41 -43 99 -41.5t99 41.5q41 43 41 98.5t-41 98.5q-41 41 -99 42t-99 -42 q-41 -41 -41 -98.5z" />
<glyph unicode="&#xe6;" horiz-adv-x="1781" d="M74 272q0 172 114 240q57 33 109.5 51.5t134.5 34.5q39 8 98 18q31 6 50.5 9.5t36 5.5t31 5t32.5 7q37 10 52.5 19.5t31.5 23.5q18 14 23.5 33.5t5.5 46.5q0 96 -65.5 130t-174.5 34q-254 0 -264 -201h-174q4 92 37.5 158.5t92 110.5t139.5 64.5t179 20.5q281 0 355 -153 q100 154 337 153q477 0 478 -606h-777q0 -74 20.5 -138.5t61.5 -110.5t99.5 -72.5t136.5 -26.5q100 0 172 52t96 153h178q-39 -172 -158.5 -265.5t-299.5 -93.5q-291 0 -383 207q-115 -207 -447 -207q-162 0 -260 74t-98 223zM258 285q0 -80 58.5 -118t146.5 -38 q160 0 244 76q86 76 86 164v178q-29 -20 -82 -33q-51 -12 -131 -25q-41 -4 -68 -7t-41 -7q-100 -16 -156.5 -59t-56.5 -131zM956 631h592q-4 129 -81.5 214t-211.5 85q-137 0 -218 -84t-81 -215z" />
<glyph unicode="&#xe7;" horiz-adv-x="1099" d="M74 516q0 250 129 408q129 160 370 159q190 0 314.5 -92t142.5 -272h-180q-20 100 -88 155.5t-174 55.5q-94 0 -157.5 -34t-101.5 -91t-54.5 -132t-16.5 -157q0 -162 76 -274q76 -113 233 -113q125 0 200 67.5t91 190.5h178q-29 -190 -139.5 -295.5t-296.5 -114.5 l-68 -86l5 -4q20 14 67 15q70 0 121 -39t51 -111q0 -94 -78 -137q-76 -45 -176 -45q-84 0 -188 39l37 90q68 -27 125 -27q49 0 88 15.5t39 48.5q0 27 -28 45t-69 18q-31 0 -84 -16l-34 57l108 140q-104 8 -187 50t-139.5 111.5t-86 164.5t-29.5 210z" />
<glyph unicode="&#xe8;" horiz-adv-x="1099" d="M74 532q-4 119 32.5 217.5t106.5 176.5q141 158 358 157q139 0 233.5 -58t151 -148.5t78 -197t17.5 -202.5h-793q-2 -74 18.5 -137.5t61.5 -110.5t103.5 -73.5t146.5 -26.5q227 0 274 207h172q-35 -174 -153.5 -267.5t-298.5 -93.5q-123 0 -216.5 40t-158 113t-98 175.5 t-35.5 228.5zM258 631h608q-6 127 -92 213t-213 86q-131 0 -213 -86q-82 -88 -90 -213zM276 1497h224l176 -293h-131z" />
<glyph unicode="&#xe9;" horiz-adv-x="1099" d="M74 532q-4 119 32.5 217.5t106.5 176.5q141 158 358 157q139 0 233.5 -58t151 -148.5t78 -197t17.5 -202.5h-793q-2 -74 18.5 -137.5t61.5 -110.5t103.5 -73.5t146.5 -26.5q227 0 274 207h172q-35 -174 -153.5 -267.5t-298.5 -93.5q-123 0 -216.5 40t-158 113t-98 175.5 t-35.5 228.5zM258 631h608q-6 127 -92 213t-213 86q-131 0 -213 -86q-82 -88 -90 -213zM426 1204l176 293h223l-268 -293h-131z" />
<glyph unicode="&#xea;" horiz-adv-x="1099" d="M74 532q-4 119 32.5 217.5t106.5 176.5q141 158 358 157q139 0 233.5 -58t151 -148.5t78 -197t17.5 -202.5h-793q-2 -74 18.5 -137.5t61.5 -110.5t103.5 -73.5t146.5 -26.5q227 0 274 207h172q-35 -174 -153.5 -267.5t-298.5 -93.5q-123 0 -216.5 40t-158 113t-98 175.5 t-35.5 228.5zM244 1204l211 293h190l213 -293h-172l-141 197l-144 -197h-157zM258 631h608q-6 127 -92 213t-213 86q-131 0 -213 -86q-82 -88 -90 -213z" />
<glyph unicode="&#xeb;" horiz-adv-x="1099" d="M74 532q-4 119 32.5 217.5t106.5 176.5q141 158 358 157q139 0 233.5 -58t151 -148.5t78 -197t17.5 -202.5h-793q-2 -74 18.5 -137.5t61.5 -110.5t103.5 -73.5t146.5 -26.5q227 0 274 207h172q-35 -174 -153.5 -267.5t-298.5 -93.5q-123 0 -216.5 40t-158 113t-98 175.5 t-35.5 228.5zM258 631h608q-6 127 -92 213t-213 86q-131 0 -213 -86q-82 -88 -90 -213zM266 1212v213h185v-213h-185zM651 1212v213h185v-213h-185z" />
<glyph unicode="&#xec;" horiz-adv-x="454" d="M-47 1497h223l176 -293h-131zM141 0v1059h174v-1059h-174z" />
<glyph unicode="&#xed;" horiz-adv-x="454" d="M102 1204l177 293h223l-269 -293h-131zM141 0v1059h174v-1059h-174z" />
<glyph unicode="&#xee;" horiz-adv-x="454" d="M-80 1204l211 293h191l213 -293h-173l-141 197l-143 -197h-158zM141 0v1059h174v-1059h-174z" />
<glyph unicode="&#xef;" horiz-adv-x="454" d="M-57 1212v213h184v-213h-184zM141 0v1059h174v-1059h-174zM328 1212v213h184v-213h-184z" />
<glyph unicode="&#xf0;" horiz-adv-x="1175" d="M74 528q0 211 129 359q131 149 354 149q182 0 285 -114h4q-43 98 -117 182q-74 86 -133 127l-236 -111l-77 82l223 105q-57 47 -144 98l144 92q74 -53 113.5 -82t44.5 -33l245 115l72 -76l-236 -108q356 -293 357 -785q0 -242 -135 -397q-135 -156 -379 -156t-379 156 t-135 397zM258 528q0 -92 24.5 -166.5t69.5 -126t104.5 -79t131.5 -27.5q70 0 130 27.5t105 79t70 126t25 166.5q0 76 -22 140.5t-63.5 112.5t-105 75t-149.5 27q-154 0 -237 -96.5t-83 -258.5z" />
<glyph unicode="&#xf1;" d="M131 0v1059h164v-168h4q106 193 344 192q197 0 281 -101t84 -286v-696h-174v717q0 98 -58.5 155.5t-157.5 57.5q-154 0 -233.5 -91t-79.5 -241v-598h-174zM223 1223q29 104 78 164.5t137 60.5q53 0 152 -41q98 -41 135 -41q66 0 94 90h107q-12 -92 -64 -164 q-57 -63 -162 -63q-35 0 -135 41q-102 39 -137 39q-37 0 -68.5 -24.5t-29.5 -61.5h-107z" />
<glyph unicode="&#xf2;" horiz-adv-x="1175" d="M74 528q0 242 135 400q135 156 379 155q244 0 379 -155q135 -158 135 -400t-135 -397q-135 -156 -379 -156t-379 156q-135 155 -135 397zM258 528q0 -186 94 -292t236 -107q141 0 235 107q94 106 95 292q0 186 -95 293q-96 109 -235 109q-140 0 -236 -109 q-94 -106 -94 -293zM313 1497h224l176 -293h-131z" />
<glyph unicode="&#xf3;" horiz-adv-x="1175" d="M74 528q0 242 135 400q135 156 379 155q244 0 379 -155q135 -158 135 -400t-135 -397q-135 -156 -379 -156t-379 156q-135 155 -135 397zM258 528q0 -186 94 -292t236 -107q141 0 235 107q94 106 95 292q0 186 -95 293q-96 109 -235 109q-140 0 -236 -109 q-94 -106 -94 -293zM463 1204l176 293h223l-268 -293h-131z" />
<glyph unicode="&#xf4;" horiz-adv-x="1175" d="M74 528q0 242 135 400q135 156 379 155q244 0 379 -155q135 -158 135 -400t-135 -397q-135 -156 -379 -156t-379 156q-135 155 -135 397zM258 528q0 -186 94 -292t236 -107q141 0 235 107q94 106 95 292q0 186 -95 293q-96 109 -235 109q-140 0 -236 -109 q-94 -106 -94 -293zM281 1204l211 293h190l213 -293h-172l-141 197l-144 -197h-157z" />
<glyph unicode="&#xf5;" horiz-adv-x="1175" d="M74 528q0 242 135 400q135 156 379 155q244 0 379 -155q135 -158 135 -400t-135 -397q-135 -156 -379 -156t-379 156q-135 155 -135 397zM242 1223q29 104 78 164.5t137 60.5q53 0 151 -41t135 -41q66 0 95 90h106q-12 -92 -63 -164q-57 -63 -162 -63q-35 0 -135 41 q-102 39 -138 39q-37 0 -68.5 -24.5t-29.5 -61.5h-106zM258 528q0 -186 94 -292t236 -107q141 0 235 107q94 106 95 292q0 186 -95 293q-96 109 -235 109q-140 0 -236 -109q-94 -106 -94 -293z" />
<glyph unicode="&#xf6;" horiz-adv-x="1175" d="M74 528q0 242 135 400q135 156 379 155q244 0 379 -155q135 -158 135 -400t-135 -397q-135 -156 -379 -156t-379 156q-135 155 -135 397zM258 528q0 -186 94 -292t236 -107q141 0 235 107q94 106 95 292q0 186 -95 293q-96 109 -235 109q-140 0 -236 -109 q-94 -106 -94 -293zM303 1212v213h184v-213h-184zM688 1212v213h184v-213h-184z" />
<glyph unicode="&#xf7;" horiz-adv-x="1228" d="M98 449v139h1032v-139h-1032zM484 121q5 39 38 67q27 33 66 38t74.5 -10t60 -48t22.5 -72q-2 -49 -39.5 -89t-89.5 -42q-41 -2 -73.5 22.5t-48 59.5t-10.5 74zM484 965q5 39 38 67q27 33 66 38t74.5 -10.5t60 -48t22.5 -71.5q-2 -49 -39.5 -89t-89.5 -42 q-41 -2 -73.5 22.5t-48 59.5t-10.5 74z" />
<glyph unicode="&#xf8;" horiz-adv-x="1175" d="M70 4l127 141q-123 150 -123 383q0 242 135 400q135 156 379 155q211 0 344 -120l119 133l55 -54l-123 -135q119 -145 119 -379q0 -242 -135 -397q-135 -156 -379 -156q-207 0 -338 117l-123 -137zM258 528q0 -141 61 -247l496 553q-90 96 -227 96q-139 0 -236 -109 q-94 -106 -94 -293zM365 221q92 -92 223 -92q70 0 130 27.5t105 79t70 126t25 166.5q0 143 -58 244z" />
<glyph unicode="&#xf9;" d="M131 362v697h174v-717q0 -98 58.5 -155.5t156.5 -57.5q154 0 234 91t80 241v598h174v-1059h-164v168h-4q-106 -193 -344 -193q-197 0 -281 101.5t-84 285.5zM295 1497h223l176 -293h-131z" />
<glyph unicode="&#xfa;" d="M131 362v697h174v-717q0 -98 58.5 -155.5t156.5 -57.5q154 0 234 91t80 241v598h174v-1059h-164v168h-4q-106 -193 -344 -193q-197 0 -281 101.5t-84 285.5zM444 1204l177 293h223l-269 -293h-131z" />
<glyph unicode="&#xfb;" d="M131 362v697h174v-717q0 -98 58.5 -155.5t156.5 -57.5q154 0 234 91t80 241v598h174v-1059h-164v168h-4q-106 -193 -344 -193q-197 0 -281 101.5t-84 285.5zM262 1204l211 293h191l213 -293h-172l-142 197l-143 -197h-158z" />
<glyph unicode="&#xfc;" d="M131 362v697h174v-717q0 -98 58.5 -155.5t156.5 -57.5q154 0 234 91t80 241v598h174v-1059h-164v168h-4q-106 -193 -344 -193q-197 0 -281 101.5t-84 285.5zM285 1212v213h184v-213h-184zM670 1212v213h184v-213h-184z" />
<glyph unicode="&#xfd;" horiz-adv-x="1024" d="M16 1059h197l309 -866h4l297 866h185l-461 -1200q-31 -80 -61.5 -133.5t-65.5 -87t-79 -48t-101 -14.5q-72 0 -121 18v160q76 -25 102 -24q90 0 144 96l71 180zM387 1204l176 293h223l-268 -293h-131z" />
<glyph unicode="&#xfe;" horiz-adv-x="1214" d="M137 -406v1868h174v-547h4q41 86 131.5 127t206.5 41q233 0 361 -159q127 -162 127 -398q0 -238 -127 -395q-125 -156 -357 -156q-96 0 -192 40t-150 126h-4v-547h-174zM305 530q0 -174 82 -286q84 -115 252 -115q164 0 242 117q75 119 75 293q0 162 -84 276 q-84 115 -243 115q-164 0 -244 -117t-80 -283z" />
<glyph unicode="&#xff;" horiz-adv-x="1024" d="M16 1059h197l309 -866h4l297 866h185l-461 -1200q-31 -80 -61.5 -133.5t-65.5 -87t-79 -48t-101 -14.5q-72 0 -121 18v160q76 -25 102 -24q90 0 144 96l71 180zM227 1212v213h185v-213h-185zM612 1212v213h185v-213h-185z" />
<glyph unicode="&#x152;" horiz-adv-x="2199" d="M78 727q0 338 184 553q184 217 502 217q109 0 215 -41q104 -41 145 -115h4v121h977v-164h-782v-464h717v-164h-717v-506h795v-164h-990v141h-4q-53 -82 -156.5 -129t-219.5 -47q-315 0 -494 215q-176 217 -176 547zM272 719q0 -256 129 -424q130 -166 361 -166 q158 0 260 82q106 82 106 207v616q0 94 -30 142q-45 68 -133 112.5t-199 44.5q-238 0 -367 -176q-127 -176 -127 -438z" />
<glyph unicode="&#x153;" horiz-adv-x="1824" d="M74 530q0 244 123 398q123 156 358 155q279 0 367 -186q53 92 155.5 139t218.5 47q252 0 369 -170q119 -170 104 -436h-768q-4 -147 76 -248q82 -100 230 -100q104 0 180 54.5t106 152.5h166q-104 -360 -452 -361q-297 0 -385 209q-90 -209 -367 -209q-238 0 -360 156 q-121 158 -121 399zM258 508q0 -154 74 -266q74 -113 223 -113q113 0 178 64q70 63 93.5 148t23.5 191q0 397 -295 398q-156 0 -225 -123q-72 -121 -72 -299zM1001 631h584q0 135 -76.5 217t-212.5 82q-135 0 -216 -82t-79 -217z" />
<glyph unicode="&#x178;" horiz-adv-x="1327" d="M4 1462h232l438 -696l428 696h221l-559 -864v-598h-195v598zM379 1575v213h184v-213h-184zM764 1575v213h184v-213h-184z" />
<glyph unicode="&#x2c6;" horiz-adv-x="454" d="M-80 1204l211 293h191l213 -293h-173l-141 197l-143 -197h-158z" />
<glyph unicode="&#x2dc;" horiz-adv-x="454" d="M-119 1223q29 104 78 164.5t137 60.5q53 0 152 -41q98 -41 135 -41q66 0 94 90h107q-12 -92 -64 -164q-57 -63 -162 -63q-35 0 -135 41q-102 39 -137 39q-37 0 -68.5 -24.5t-29.5 -61.5h-107z" />
<glyph unicode="&#x2000;" horiz-adv-x="975" />
<glyph unicode="&#x2001;" horiz-adv-x="1950" />
<glyph unicode="&#x2002;" horiz-adv-x="975" />
<glyph unicode="&#x2003;" horiz-adv-x="1950" />
<glyph unicode="&#x2004;" horiz-adv-x="650" />
<glyph unicode="&#x2005;" horiz-adv-x="487" />
<glyph unicode="&#x2006;" horiz-adv-x="325" />
<glyph unicode="&#x2007;" horiz-adv-x="325" />
<glyph unicode="&#x2008;" horiz-adv-x="243" />
<glyph unicode="&#x2009;" horiz-adv-x="390" />
<glyph unicode="&#x200a;" horiz-adv-x="108" />
<glyph unicode="&#x2010;" horiz-adv-x="796" d="M102 487v164h592v-164h-592z" />
<glyph unicode="&#x2011;" horiz-adv-x="796" d="M102 487v164h592v-164h-592z" />
<glyph unicode="&#x2012;" horiz-adv-x="796" d="M102 487v164h592v-164h-592z" />
<glyph unicode="&#x2013;" horiz-adv-x="1024" d="M0 487v164h1024v-164h-1024z" />
<glyph unicode="&#x2014;" horiz-adv-x="2048" d="M266 487v164h1516v-164h-1516z" />
<glyph unicode="&#x2018;" horiz-adv-x="569" d="M172 934v227q0 131 56.5 216t168.5 85v-102q-63 0 -90.5 -58.5t-27.5 -140.5h120v-227h-227z" />
<glyph unicode="&#x2019;" horiz-adv-x="569" d="M170 1235v227h227v-227q0 -131 -56 -216t-169 -85v102q63 0 91 58.5t28 140.5h-121z" />
<glyph unicode="&#x201a;" horiz-adv-x="569" d="M170 0v227h227v-227q0 -131 -56 -216t-169 -85v102q63 0 91 58.5t28 140.5h-121z" />
<glyph unicode="&#x201c;" horiz-adv-x="872" d="M135 934v227q0 131 56.5 216t168.5 85v-102q-63 0 -90.5 -58.5t-27.5 -140.5h120v-227h-227zM510 934v227q0 131 56.5 216t168.5 85v-102q-63 0 -91 -58.5t-28 -140.5h121v-227h-227z" />
<glyph unicode="&#x201d;" horiz-adv-x="872" d="M135 1235v227h227v-227q0 -131 -56 -216t-169 -85v102q63 0 91 58.5t28 140.5h-121zM510 1235v227h227v-227q0 -131 -56 -216t-169 -85v102q63 0 91 58.5t28 140.5h-121z" />
<glyph unicode="&#x201e;" horiz-adv-x="872" d="M135 0v227h227v-227q0 -131 -56 -216t-169 -85v102q63 0 91 58.5t28 140.5h-121zM510 0v227h227v-227q0 -131 -56 -216t-169 -85v102q63 0 91 58.5t28 140.5h-121z" />
<glyph unicode="&#x2022;" horiz-adv-x="1024" d="M147 731q0 152 107 258q106 106 258 107q152 0 258 -107q109 -109 109 -258q0 -152 -109 -260q-106 -106 -258 -106t-258 106t-107 260z" />
<glyph unicode="&#x2026;" horiz-adv-x="2048" d="M227 0v227h228v-227h-228zM909 0v227h228v-227h-228zM1591 0v227h228v-227h-228z" />
<glyph unicode="&#x202f;" horiz-adv-x="390" />
<glyph unicode="&#x2039;" horiz-adv-x="530" d="M102 479v180l312 246v-176l-205 -160l205 -159v-177z" />
<glyph unicode="&#x203a;" horiz-adv-x="530" d="M117 233v177l205 159l-205 160v176l311 -246v-180z" />
<glyph unicode="&#x205f;" horiz-adv-x="487" />
<glyph unicode="&#x20ac;" d="M27 565l55 125h94q-2 10 -2 41v39t2 27h-149l53 125h110q49 254 187 397q154 166 395 166q186 0 371 -129l-94 -170q-145 141 -293 141q-154 0 -254 -131q-82 -106 -115 -274h580l-56 -125h-538q-2 -10 -2 -26.5v-37.5q0 -35 2 -43h510l-54 -125h-446q68 -440 389 -440 q98 0 174 39q53 27 141 108v-215q-139 -90 -315 -90q-502 0 -588 598h-157z" />
<glyph unicode="&#x2122;" horiz-adv-x="2027" d="M131 1350v112h668v-112h-264v-732h-140v732h-264zM971 618v844h215l252 -641l248 641h212v-844h-139v705h-4l-276 -705h-88l-277 705h-4v-705h-139z" />
<glyph unicode="&#x25fc;" horiz-adv-x="1054" d="M0 0v1055h1055v-1055h-1055z" />
<glyph unicode="&#xfb01;" horiz-adv-x="1060" d="M25 905v154h178v158q0 129 74.5 195.5t218.5 66.5q57 0 112 -17v-151q-41 14 -98 14q-68 0 -100.5 -26.5t-32.5 -92.5v-147h205v-154h-205v-905h-174v905h-178zM748 0v1059h174v-1059h-174zM748 1249v213h174v-213h-174z" />
<glyph unicode="&#xfb02;" horiz-adv-x="1060" d="M25 905v154h178v158q0 129 74.5 195.5t218.5 66.5q57 0 112 -17v-151q-41 14 -98 14q-68 0 -100.5 -26.5t-32.5 -92.5v-147h205v-154h-205v-905h-174v905h-178zM748 0v1462h174v-1462h-174z" />
</font>
</defs>
</svg>
